<svg xmlns="http://www.w3.org/2000/svg" width="76.48" height="14.32">
  <path fill="#070707" d="M14.18 12.91V14H8.35a7.8 7.8 0 0 0 .13-1.18v-.86a4.86 4.86 0 0 1-4.38 2.2 4.51 4.51 0 0 1-3.1-.91 3.4 3.4 0 0 1-1-2.7 3.69 3.69 0 0 1 2-3.46Q4.1 6 8.51 6V3.73a3.6 3.6 0 0 0-.41-1.89 1.89 1.89 0 0 0-1.73-.67 2.51 2.51 0 0 0-1.58.38 1.17 1.17 0 0 0-.46.93 1.62 1.62 0 0 0 .16.74 2.74 2.74 0 0 1 .13.64 1.3 1.3 0 0 1-.5 1.09 2 2 0 0 1-1.26.38 2 2 0 0 1-1.47-.53 1.75 1.75 0 0 1-.56-1.33A2.78 2.78 0 0 1 2.43 1 8.6 8.6 0 0 1 6.75.08q6 0 6 4.26v8q0 .61.42.61zm-6.55-1.49a4.08 4.08 0 0 0 .88-2.22V7.09a5.2 5.2 0 0 0-3.17.77 2.73 2.73 0 0 0-1 2.3q0 2.11 1.57 2.11a2.18 2.18 0 0 0 1.72-.85zm48-11v1.04l-1-.06h-.1a.66.66 0 0 0-.64.48l-5 12.29h-2L42 1.81a.62.62 0 0 0-.26-.32.53.53 0 0 0-.38-.1l-1 .06V.4h8v1.06l-1.31-.06a.58.58 0 0 0-.42.19.36.36 0 0 0-.06.45l3.07 7.39 2.97-7.53a.57.57 0 0 0 .06-.26q0-.29-.32-.26L51 1.46V.4zm10.13.11a4.92 4.92 0 0 1 2 1.22 2.42 2.42 0 0 1 .72 1.7 2 2 0 0 1-.48 1.4 1.92 1.92 0 0 1-1.49.58 2.06 2.06 0 0 1-1.26-.37A1.25 1.25 0 0 1 64.7 4a2.15 2.15 0 0 1 .13-.67 1.55 1.55 0 0 0 .16-.7 1.2 1.2 0 0 0-.56-1.07A2.48 2.48 0 0 0 63 1.17a2.38 2.38 0 0 0-2.14 1.3 9.17 9.17 0 0 0-.77 4.4q0 3.46.94 4.86a3 3 0 0 0 2.61 1.41 4.18 4.18 0 0 0 2.38-.72 4.52 4.52 0 0 0 1.65-2.35l1 .48q-1.38 3.78-5.79 3.78a7.7 7.7 0 0 1-5.17-1.73 6.55 6.55 0 0 1-2-5.28 7 7 0 0 1 2-5.39A7.32 7.32 0 0 1 62.88.08a8.69 8.69 0 0 1 2.88.45zm5.63 9.65a3.31 3.31 0 0 1 2.11-.66 3.36 3.36 0 0 1 2.14.66 2.11 2.11 0 0 1 .83 1.74 2.1 2.1 0 0 1-.83 1.76 3.42 3.42 0 0 1-2.14.64 3.35 3.35 0 0 1-2.13-.64 2.11 2.11 0 0 1-.82-1.76 2.11 2.11 0 0 1 .84-1.74zM30.65 0l-8 13.82.87.5 8-13.82z"/>
</svg>