<svg xmlns="http://www.w3.org/2000/svg" viewBox="0 0 750 500"><g id="freepik--background-complete--inject-168"><rect x="38.51" y="57.39" width="73.61" height="76.73" style="fill:#e0e0e0"></rect><rect x="33.53" y="57.39" width="73.61" height="76.73" style="fill:#f5f5f5"></rect><path d="M107.15,134.14H33.5V57.36h73.65Zm-73.6,0h73.56V57.41H33.55Z" style="fill:#e0e0e0"></path><rect x="43.42" y="67.7" width="53.82" height="56.1" style="fill:#fff"></rect><path d="M43.42,124.17a9,9,0,0,1-1.33,1.55c-.86.9-2.07,2.13-3.42,3.46s-2.6,2.53-3.51,3.37a9.19,9.19,0,0,1-1.56,1.3,7.91,7.91,0,0,1,1.32-1.54c.86-.91,2.07-2.14,3.43-3.48s2.6-2.53,3.52-3.37A8.82,8.82,0,0,1,43.42,124.17Z" style="fill:#e0e0e0"></path><path d="M97.24,124a9.21,9.21,0,0,1,1.54,1.33c.91.86,2.14,2.07,3.47,3.42s2.52,2.6,3.36,3.52a8.66,8.66,0,0,1,1.3,1.55,8.27,8.27,0,0,1-1.54-1.32c-.9-.86-2.14-2.07-3.47-3.42s-2.53-2.61-3.37-3.53A7.59,7.59,0,0,1,97.24,124Z" style="fill:#e0e0e0"></path><path d="M97.09,67.85a8.76,8.76,0,0,1,1.33-1.54c.86-.91,2.06-2.14,3.42-3.47s2.6-2.52,3.51-3.37a8.24,8.24,0,0,1,1.56-1.29,8.45,8.45,0,0,1-1.32,1.53c-.86.91-2.07,2.14-3.43,3.48s-2.6,2.53-3.52,3.37A8.82,8.82,0,0,1,97.09,67.85Z" style="fill:#e0e0e0"></path><path d="M43.27,68a9.21,9.21,0,0,1-1.54-1.33c-.91-.86-2.14-2.07-3.47-3.42s-2.52-2.6-3.36-3.52a8.66,8.66,0,0,1-1.3-1.55,8.27,8.27,0,0,1,1.54,1.32c.9.86,2.13,2.07,3.47,3.43s2.53,2.6,3.37,3.52A7.92,7.92,0,0,1,43.27,68Z" style="fill:#e0e0e0"></path><path d="M97.09,123.8s0-.1,0-.27,0-.45,0-.79c0-.7,0-1.71,0-3,0-2.66,0-6.53-.05-11.44,0-9.82-.06-23.82-.11-40.58l.21.21-53.66,0h0l.24-.24c0,20.59,0,39.85,0,56.1l-.2-.21,38.86.11,10.92,0,2.88,0h0l-2.85,0-10.87.05-39,.1h-.2v-.2c0-16.25,0-35.51,0-56.1v-.24h.25l53.66,0h.21v.21c0,16.81-.08,30.86-.11,40.71,0,4.89,0,8.74,0,11.39,0,1.3,0,2.3,0,3,0,.32,0,.57,0,.76A2.28,2.28,0,0,1,97.09,123.8Z" style="fill:#e0e0e0"></path><rect x="61.35" y="86.77" width="17.96" height="17.96" style="fill:#ebebeb"></rect><path d="M597.9,73a39.57,39.57,0,0,1,9.72-4.22l2-9.62,16.25-.29,2.34,9.54a39.75,39.75,0,0,1,9.86,3.88l8.21-5.38L658,78.16l-5.09,8.39a40,40,0,0,1,4.23,9.72l9.61,2,.29,16.25-9.54,2.34a39.6,39.6,0,0,1-3.88,9.86l5.38,8.21-11.29,11.7-8.39-5.09a40.34,40.34,0,0,1-9.72,4.22l-2,9.62-16.25.28L609,146.12a39.75,39.75,0,0,1-9.86-3.88l-8.21,5.38-11.69-11.28,5.09-8.4a39.65,39.65,0,0,1-4.23-9.72l-9.61-2L570.18,100l9.54-2.34a39.9,39.9,0,0,1,3.88-9.86l-5.38-8.21,11.29-11.69L597.9,73Zm8.67,21.65a17.43,17.43,0,1,0,24.65-.44A17.43,17.43,0,0,0,606.57,94.61Z" style="fill:#e0e0e0"></path><path d="M684.46,139.45a21.13,21.13,0,0,1,4.27-3.65l-.48-5.18,8.19-2.66,2.66,4.47a21.19,21.19,0,0,1,5.6.44l3.33-4,7.67,3.91-1.28,5a20.76,20.76,0,0,1,3.64,4.27l5.18-.48,2.67,8.19-4.48,2.66a20.77,20.77,0,0,1-.43,5.6l4,3.33-3.91,7.67-5-1.28a21.4,21.4,0,0,1-4.27,3.64l.47,5.18-8.19,2.67-2.66-4.48a20.73,20.73,0,0,1-5.59-.43l-3.33,4-7.67-3.9,1.28-5a21.13,21.13,0,0,1-3.65-4.27l-5.18.47-2.66-8.19,4.47-2.66a21.12,21.12,0,0,1,.44-5.59l-4-3.33,3.91-7.67,5,1.28Zm7.74,9.62a9.24,9.24,0,1,0,12.42-4A9.23,9.23,0,0,0,692.2,149.07Z" style="fill:#e0e0e0"></path><path d="M652.63,203.18a22.08,22.08,0,0,1,4.46-3.81L656.6,194l8.55-2.78,2.78,4.68a22.23,22.23,0,0,1,5.85.45l3.48-4.17,8,4.08-1.34,5.27a22.12,22.12,0,0,1,3.81,4.46l5.41-.5,2.78,8.56-4.67,2.78a21.82,21.82,0,0,1-.46,5.85l4.18,3.48-4.08,8-5.27-1.33a22.4,22.4,0,0,1-4.46,3.81l.5,5.41-8.56,2.78-2.78-4.67a21.82,21.82,0,0,1-5.85-.46L661,243.84l-8-4.08,1.34-5.27a22.4,22.4,0,0,1-3.81-4.46l-5.41.49L642.33,222l4.67-2.79a21.78,21.78,0,0,1,.46-5.84l-4.18-3.48,4.08-8,5.27,1.34Zm8.09,10.06a9.65,9.65,0,1,0,13-4.22A9.65,9.65,0,0,0,660.72,213.24Z" style="fill:#f5f5f5"></path><path d="M402.9,51.42A25.45,25.45,0,0,1,408,47l-.57-6.24,9.85-3.2,3.2,5.38a25.51,25.51,0,0,1,6.73.53l4-4.81,9.22,4.7L439,49.46a25.45,25.45,0,0,1,4.38,5.14l6.23-.57,3.21,9.85-5.38,3.2a25.58,25.58,0,0,1-.53,6.74l4.81,4L447,87.05l-6.07-1.54a25.12,25.12,0,0,1-5.13,4.38l.57,6.24-9.85,3.2L423.29,94a25.58,25.58,0,0,1-6.74-.53l-4,4.81-9.23-4.7,1.54-6.06a25.45,25.45,0,0,1-4.38-5.14l-6.24.57L391,73.05l5.38-3.2a25.51,25.51,0,0,1,.53-6.73l-4.82-4,4.71-9.23,6.06,1.54ZM412.22,63a11.11,11.11,0,1,0,14.94-4.85A11.11,11.11,0,0,0,412.22,63Z" style="fill:#e0e0e0"></path><path d="M66.88,382.68a29.31,29.31,0,0,0-12.58-4.33c-2.06-.22-4.3-.16-5.95,1.09a1.24,1.24,0,0,0-.62,1.09,1.37,1.37,0,0,0,.59.74,18,18,0,0,0,18.56,1.41" style="fill:#e0e0e0"></path><path d="M66.56,382.32a61.47,61.47,0,0,1-8.13-7.15,20.56,20.56,0,0,1-5.09-9.42,3.81,3.81,0,0,1,.4-3.16c6.48,5.06,11.57,11.61,12.82,19.73" style="fill:#e0e0e0"></path><path d="M66.81,382.63A29.42,29.42,0,0,1,67,372a14.39,14.39,0,0,1,5.68-8.81c1.12,2.62.64,5.63-.15,8.37a40.56,40.56,0,0,1-5.64,11.86" style="fill:#e0e0e0"></path><path d="M73.17,394a18.58,18.58,0,0,0-10.1,5.1A19.18,19.18,0,0,0,57.3,409c3.78-.23,7-2.9,9.32-5.89s3.94-6.27,6.49-9.07" style="fill:#e0e0e0"></path><path d="M74.54,395.83a24.9,24.9,0,0,1,2.88-23.55c2.19,7.82,1.39,16.64-2.88,23.55" style="fill:#e0e0e0"></path><path d="M82.94,405.82a18,18,0,0,0-17.21,9.9,1.33,1.33,0,0,0-.12,1.35,1.31,1.31,0,0,0,1.14.34c3.39-.22,6.4-2.26,8.88-4.59s4.64-5,7.38-7" style="fill:#e0e0e0"></path><path d="M82.67,405.27a32,32,0,0,1-.32-17.9c.63-2.3,1.69-4.73,3.82-5.81a.59.59,0,0,1,1,.33A10.71,10.71,0,0,1,88,387a32.68,32.68,0,0,1-.8,5.2c-.67,3.18-1,6.59-2.77,9.33a18.47,18.47,0,0,0-1.11,2.05c-.33.7-.33.95-.64,1.5" style="fill:#e0e0e0"></path><path d="M104.88,408.58a23.08,23.08,0,0,1,4-19c.29-.37.68-.78,1.15-.74.73.07.92,1,.89,1.77a34.32,34.32,0,0,1-6.08,17.95" style="fill:#e0e0e0"></path><path d="M106.88,410a27.56,27.56,0,0,0,22.65-4.61,18.3,18.3,0,0,0-12.26-1.5c-4.1.94-7.84,2.77-10.39,6.11" style="fill:#e0e0e0"></path><path d="M108.57,405.78a26.17,26.17,0,0,1,20.56-11.88c-.94,3.3-3.66,5.88-6.72,7.43a37.74,37.74,0,0,1-9.87,2.89c-1.32.25-3.12.53-4,1.56" style="fill:#e0e0e0"></path><path d="M105.3,385.56a60.22,60.22,0,0,0,2.63-12,20,20,0,0,0-2.4-11.91c-4,7.7-4.38,16.69-.35,24.36" style="fill:#e0e0e0"></path><path d="M118.7,378.79c4.65-8.46,14.14-15.21,23.74-16.16-3.7,9.23-13.8,16.36-23.74,16.16" style="fill:#e0e0e0"></path><path d="M115.77,380.45c6.94,1.05,12.85,5.49,19.33,8.17a8.68,8.68,0,0,0,4.37.84,3.42,3.42,0,0,0,2.15-6,9.49,9.49,0,0,0-3.18-1.93c-7.06-2.94-14.63-3-22.07-1.23" style="fill:#e0e0e0"></path><path d="M111.75,385.31c1.57.45,2.11,1.27,3.36,2.33a36.24,36.24,0,0,0,14.66,7.53c.56.14,1.29.19,1.57-.31s-.07-1-.38-1.37a20.17,20.17,0,0,0-8.85-6c-3.39-1.26-6.32-2.78-10.36-2.46" style="fill:#e0e0e0"></path><path d="M107.22,355.92a27.75,27.75,0,0,0,21.28,7.24,1.42,1.42,0,0,0,1-.35c.54-.58-.1-1.48-.73-2-6.25-4.87-13.83-6.89-21.51-4.92" style="fill:#e0e0e0"></path><path d="M112.59,354a29.63,29.63,0,0,1,26.55-4.38,21.11,21.11,0,0,1-12.65,5.55,40,40,0,0,1-13.9-1.17" style="fill:#e0e0e0"></path><path d="M110.46,340.45c-.61-6.24-.22-11.17-.65-17.44,0-.5-.14-1.11-.61-1.29-.65-.25-1.2.55-1.41,1.22a20,20,0,0,0,2.66,17.37" style="fill:#e0e0e0"></path><path d="M110,341.14a36.64,36.64,0,0,0,10.34-10.05c2-2.8,3.77-6.14,3.3-9.57a9.89,9.89,0,0,0-7.46,3.7,20.9,20.9,0,0,0-3.8,7.65c-.83,2.75-1.41,5.57-2.38,8.27" style="fill:#e0e0e0"></path><path d="M120.17,338.32a83.55,83.55,0,0,0,25.45-15c-3-1.22-6.52-.49-9.56.74a30.11,30.11,0,0,0-16,14.2" style="fill:#e0e0e0"></path><path d="M112.87,344.55a51.45,51.45,0,0,0,14.13.07c4.58-.76,8.91-2.58,13.19-4.38a1.6,1.6,0,0,0,.9-.68,1.05,1.05,0,0,0-.33-1.13,2.83,2.83,0,0,0-1.12-.53,24.41,24.41,0,0,0-14.26.86,65.71,65.71,0,0,0-12.51,5.79" style="fill:#e0e0e0"></path><path d="M86,356.14a25.05,25.05,0,0,1-.23-20.69c2,3,2.19,6.75,1.84,10.28s-1.44,7.18-1.51,10.73" style="fill:#e0e0e0"></path><path d="M73.24,349.68a28.81,28.81,0,0,0-21.44,9.13,20,20,0,0,0,11.74-2.18A59.64,59.64,0,0,0,73.6,349.9" style="fill:#e0e0e0"></path><path d="M64.63,346.8c-3.91-.32-7.68-.8-11.44.35a13.72,13.72,0,0,0-8.73,7.4,20.71,20.71,0,0,0,10.73-2,61.79,61.79,0,0,0,9.44-5.72" style="fill:#e0e0e0"></path><path d="M77.38,346.93c-3.53-2.31-7.14-4.66-11.24-5.61s-8.86-.25-11.71,2.84c3.31,1.95,7.34,2.18,11.19,2.17s8.57,0,12.2,1.24" style="fill:#e0e0e0"></path><path d="M77.4,347.12c-6-5.92-8.31-16.54-5.88-24.62a37.53,37.53,0,0,1,5.88,24.62" style="fill:#e0e0e0"></path><path d="M94,330.36c1.14-2.63,1.94-5.41,3-8.09a23.23,23.23,0,0,1,4.2-7.47,11.1,11.1,0,0,1,7.46-3.86A30,30,0,0,1,94.1,330.41" style="fill:#e0e0e0"></path><path d="M91,333.86c-1.88-2.59-4-6.1-6.6-8s-5.87-3.1-9-2.36A20.93,20.93,0,0,0,91,333.86" style="fill:#e0e0e0"></path><path d="M91.56,330.58a43.71,43.71,0,0,1-3-9.62,15,15,0,0,1,1.5-9.78c3.31,6.25,4.37,12.95,1.63,19.47" style="fill:#e0e0e0"></path><path d="M94,311.18c1.87-6.19,7.55-10.75,13.67-12.84A4.94,4.94,0,0,1,110,298a2.07,2.07,0,0,1,1.77,1.47c.22,1.05-.65,2-1.47,2.7a46.5,46.5,0,0,1-16.36,9" style="fill:#e0e0e0"></path><path d="M94.05,306.12c.24-4,.49-8.05,1.79-11.83s3.8-7.33,7.44-9c.62,4-1.16,8.05-3.31,11.52s-4.73,6.74-6,10.61" style="fill:#e0e0e0"></path><path d="M94,308.86c-1.54-4.51-1.7-10.24-4.41-14.17-1.89-2.75-4.91-4.62-6.54-7.54a11.47,11.47,0,0,0,.38,8.55,24.65,24.65,0,0,0,5,7.16c2,2.14,3.71,3.75,5.57,6" style="fill:#e0e0e0"></path><path d="M94,441.78c-.12,0-.22-30.11-.23-67.24s.08-67.25.2-67.25.23,30.1.24,67.25S94.1,441.78,94,441.78Z" style="fill:#e0e0e0"></path><path d="M120.29,351.59a6.13,6.13,0,0,1-1.13.43l-3.11,1.05c-2.63.89-6.24,2.19-10.16,3.79s-7.53,3-9.61,4.82a7.19,7.19,0,0,0-1.94,2.56c-.29.71-.35,1.14-.39,1.13a.91.91,0,0,1,0-.31,4,4,0,0,1,.22-.88,6.75,6.75,0,0,1,1.88-2.73,17.12,17.12,0,0,1,4.18-2.59c1.66-.78,3.52-1.59,5.48-2.4,3.93-1.61,7.57-2.86,10.22-3.68,1.33-.42,2.41-.72,3.16-.93A7.22,7.22,0,0,1,120.29,351.59Z" style="fill:#e0e0e0"></path><path d="M128.92,330.41a2.32,2.32,0,0,1-.32.34l-1,.9L124,334.93l-12,10.69c-4.68,4.17-8.73,8.16-11.54,11.16-1.4,1.5-2.51,2.74-3.27,3.6l-.87,1a1.74,1.74,0,0,1-.32.33s.07-.14.25-.38.45-.61.81-1.05c.72-.91,1.79-2.18,3.17-3.71a154.44,154.44,0,0,1,11.48-11.28c4.71-4.16,9-7.9,12.1-10.59l3.69-3.17,1-.85A1.86,1.86,0,0,1,128.92,330.41Z" style="fill:#e0e0e0"></path><path d="M107,349.86c-.12-.05.86-2.31,1.84-5.17s1.44-5.27,1.57-5.25a17.69,17.69,0,0,1-1.16,5.39,34.1,34.1,0,0,1-1.46,3.61A5.44,5.44,0,0,1,107,349.86Z" style="fill:#e0e0e0"></path><path d="M94,368.08a5.51,5.51,0,0,1-.72-.83l-1.85-2.38c-1.56-2-3.7-4.78-6.11-7.81s-4.62-5.76-6.23-7.73L77.21,347a5.34,5.34,0,0,1-.65-.89,5.53,5.53,0,0,1,.78.78c.48.53,1.17,1.29,2,2.26,1.66,1.92,3.92,4.61,6.33,7.65s4.52,5.84,6,7.9c.75,1,1.34,1.87,1.74,2.46A6.32,6.32,0,0,1,94,368.08Z" style="fill:#e0e0e0"></path><path d="M88.24,360.68a10.7,10.7,0,0,1-2.42-4.53,12.8,12.8,0,0,1-.54-4.56l.19,0c-.09.35-.15.53-.19.52s0-.2,0-.55h.19a20.67,20.67,0,0,0,.77,4.44A34.87,34.87,0,0,0,88.24,360.68Z" style="fill:#e0e0e0"></path><path d="M80.79,351.31a7.77,7.77,0,0,0-1.68-1,11.25,11.25,0,0,0-4.69-.37,28.57,28.57,0,0,0-4.72.76,14.84,14.84,0,0,1-1.94.46,7,7,0,0,1,1.86-.76,21.69,21.69,0,0,1,4.77-.9,10.22,10.22,0,0,1,4.83.52A3,3,0,0,1,80.79,351.31Z" style="fill:#e0e0e0"></path><path d="M79,349c0,.07-1-.4-2.59-.94a26.06,26.06,0,0,0-13-1c-1.66.3-2.67.61-2.69.54a2.32,2.32,0,0,1,.68-.29,16,16,0,0,1,2-.55,23.13,23.13,0,0,1,13.2,1,14.23,14.23,0,0,1,1.84.84A2.19,2.19,0,0,1,79,349Z" style="fill:#e0e0e0"></path><path d="M94,339.44a55,55,0,0,1-1.88-6.55,54.69,54.69,0,0,1-1.47-6.66,53.13,53.13,0,0,1,1.89,6.55A53.43,53.43,0,0,1,94,339.44Z" style="fill:#e0e0e0"></path><path d="M94.07,339.44A30.8,30.8,0,0,0,92,335.52a17.51,17.51,0,0,0-3.07-3.18,2.88,2.88,0,0,1,1.18.61,9.8,9.8,0,0,1,2.25,2.32A8.59,8.59,0,0,1,94.07,339.44Z" style="fill:#e0e0e0"></path><path d="M94,425.73s-.13-.72-.47-2a29.13,29.13,0,0,0-2-5.21,72.24,72.24,0,0,0-10.68-15c-2.38-2.73-4.7-5.29-6.66-7.75a55.39,55.39,0,0,1-4.76-6.87,33,33,0,0,1-2.4-5.1c-.22-.62-.39-1.11-.47-1.45a3,3,0,0,1-.13-.52s.26.69.76,1.91a36,36,0,0,0,2.51,5,56.83,56.83,0,0,0,4.8,6.77c2,2.44,4.29,5,6.68,7.72a68.18,68.18,0,0,1,10.62,15.19,26.22,26.22,0,0,1,1.9,5.31,13.81,13.81,0,0,1,.27,1.51A2.12,2.12,0,0,1,94,425.73Z" style="fill:#e0e0e0"></path><path d="M117.76,398.88a12.29,12.29,0,0,1-1.25.7,27.91,27.91,0,0,0-3.23,2.13,37.38,37.38,0,0,0-4.24,3.87c-1.49,1.58-3,3.41-4.59,5.36-3.14,3.93-6.07,7.41-7.82,10.19a38.53,38.53,0,0,0-2,3.35,10.24,10.24,0,0,1-.69,1.25,1.5,1.5,0,0,1,.12-.35c.09-.23.22-.56.42-1A32.66,32.66,0,0,1,96.37,421a112.28,112.28,0,0,1,7.74-10.29c1.57-2,3.12-3.79,4.64-5.36a33.84,33.84,0,0,1,4.35-3.84,21.4,21.4,0,0,1,3.33-2c.42-.21.75-.34,1-.43S117.75,398.86,117.76,398.88Z" style="fill:#e0e0e0"></path><path d="M118.22,407.59a19.28,19.28,0,0,1-2.63.38,34.86,34.86,0,0,0-6.25,1.23,18.9,18.9,0,0,0-5.59,2.94c-1.29,1-1.9,1.82-2,1.77a2.13,2.13,0,0,1,.39-.61,10.32,10.32,0,0,1,1.38-1.4,16.92,16.92,0,0,1,5.65-3.11,27.81,27.81,0,0,1,6.35-1.12A14.23,14.23,0,0,1,118.22,407.59Z" style="fill:#e0e0e0"></path><path d="M102.56,413c-.13-.08,1-1.89,2-4.33s1.07-4.62,1.22-4.59a3.91,3.91,0,0,1,0,1.41,14.71,14.71,0,0,1-.77,3.33,15.62,15.62,0,0,1-1.53,3.05A3.94,3.94,0,0,1,102.56,413Z" style="fill:#e0e0e0"></path><path d="M125.46,375.49a2.45,2.45,0,0,1-.42.22l-1.24.56c-.54.24-1.2.53-1.94.92s-1.61.78-2.52,1.32l-1.44.82c-.49.29-1,.63-1.51,1-1.06.64-2.12,1.43-3.25,2.24a55.86,55.86,0,0,0-12.53,13c-.77,1.16-1.53,2.25-2.13,3.33-.31.54-.63,1-.9,1.55s-.53,1-.77,1.46c-.51.92-.88,1.81-1.24,2.56s-.63,1.42-.85,2l-.52,1.26a1.59,1.59,0,0,1-.21.43,2.17,2.17,0,0,1,.13-.46c.12-.34.26-.77.44-1.29a21.41,21.41,0,0,1,.79-2c.34-.76.69-1.66,1.18-2.6l.75-1.48c.26-.52.58-1,.89-1.57.59-1.1,1.34-2.2,2.11-3.38A58.69,58.69,0,0,1,106,388.2a57.31,57.31,0,0,1,6.87-6c1.15-.81,2.22-1.59,3.3-2.23.53-.32,1-.66,1.53-.94l1.46-.8c.92-.52,1.81-.9,2.56-1.27s1.43-.64,2-.85l1.28-.49C125.3,375.52,125.45,375.47,125.46,375.49Z" style="fill:#e0e0e0"></path><path d="M106.64,388.1a3,3,0,0,1,1-1.55,6.58,6.58,0,0,1,4.17-1.6,11.58,11.58,0,0,1,4.38.86,6.18,6.18,0,0,1,1.66.81,10.63,10.63,0,0,1-1.76-.52,13.08,13.08,0,0,0-4.27-.71,6.75,6.75,0,0,0-4,1.4A12.1,12.1,0,0,0,106.64,388.1Z" style="fill:#e0e0e0"></path><path d="M103.83,391a15.92,15.92,0,0,0,1.18-3.85,15.55,15.55,0,0,0-.26-4s.28.38.49,1.12a8.09,8.09,0,0,1,.21,2.95,7.94,7.94,0,0,1-.89,2.82C104.2,390.68,103.87,391,103.83,391Z" style="fill:#e0e0e0"></path><path d="M73.19,430.05c.65,11.5,4.11,23.21,9.45,35h23.19c5.09-11.72,8.31-23.4,8.89-35Z" style="fill:#e0e0e0"></path><path d="M111,448.67c0,.12-7.64.21-17.06.21s-17.05-.09-17.05-.21,7.63-.22,17.05-.22S111,448.55,111,448.67Z" style="fill:#fafafa"></path><path d="M110.44,452.83c0,.12-7.16.22-16,.22s-16-.1-16-.22,7.16-.21,16-.21S110.44,452.71,110.44,452.83Z" style="fill:#fafafa"></path><path d="M83,437.6a65,65,0,0,1,0,10.69,65,65,0,0,1,0-10.69Z" style="fill:#fafafa"></path><path d="M95.44,437.6a69.74,69.74,0,0,1,0,11.07,69.74,69.74,0,0,1,0-11.07Z" style="fill:#fafafa"></path><path d="M107.1,437.51a72.4,72.4,0,0,1,0,11.28,75.84,75.84,0,0,1,0-11.28Z" style="fill:#fafafa"></path><path d="M114,437.6c0,.12-9,.22-20,.22s-20-.1-20-.22,9-.22,20-.22S114,437.48,114,437.6Z" style="fill:#fafafa"></path></g><g id="freepik--Floor--inject-168"><path d="M699.12,464.43c0,.14-145.13.26-324.1.26s-324.14-.12-324.14-.26,145.1-.26,324.14-.26S699.12,464.28,699.12,464.43Z" style="fill:#263238"></path></g><g id="freepik--device-1--inject-168"><path d="M575.48,63H154.08a13.16,13.16,0,0,0-13.15,13.16V373.81A13.16,13.16,0,0,0,154.08,387H315.81l-8.18,79.1,117.8-.74L418.69,387H575.48a13.16,13.16,0,0,0,13.16-13.16V76.17A13.16,13.16,0,0,0,575.48,63Z" style="fill:#455a64"></path><path d="M370.41,355.66c5.73,8.2-3.24,17.17-11.44,11.44a3,3,0,0,1-.7-.71c-5.72-8.19,3.24-17.15,11.43-11.43A3,3,0,0,1,370.41,355.66Z" style="fill:#263238"></path><path d="M157.88,68.47h413.8a9.7,9.7,0,0,1,9.7,9.7V332.51a0,0,0,0,1,0,0H148.18a0,0,0,0,1,0,0V78.16A9.7,9.7,0,0,1,157.88,68.47Z" style="fill:#fff"></path><path d="M157.34,68.47H573.86A7.52,7.52,0,0,1,581.38,76V90.41a0,0,0,0,1,0,0H148.18a0,0,0,0,1,0,0V77.62A9.15,9.15,0,0,1,157.34,68.47Z" style="fill:#f5f5f5"></path><path d="M165,79.9a3,3,0,1,1-3-3.05A3,3,0,0,1,165,79.9Z" style="fill:#e0e0e0"></path><path d="M174.09,79.9a3,3,0,1,1-3-3.05A3,3,0,0,1,174.09,79.9Z" style="fill:#e0e0e0"></path><path d="M182.72,79.9a3,3,0,1,1-3-3.05A3,3,0,0,1,182.72,79.9Z" style="fill:#e0e0e0"></path><path d="M462.17,387c0,.15-35.33.26-78.9.26s-78.9-.11-78.9-.26,35.32-.26,78.9-.26S462.17,386.83,462.17,387Z" style="fill:#263238"></path><rect x="148.18" y="90.41" width="71.2" height="242.11" style="fill:#ebebeb"></rect><path d="M179.47,95.58a5,5,0,0,1,1.19-.51l.24-1.18,2,0,.28,1.16a5,5,0,0,1,1.21.48l1-.66,1.42,1.38-.62,1a4.83,4.83,0,0,1,.52,1.19l1.17.24,0,2-1.17.29a4.9,4.9,0,0,1-.47,1.2l.66,1-1.38,1.43-1-.62a4.39,4.39,0,0,1-1.18.51l-.25,1.18-2,0-.28-1.16a4.63,4.63,0,0,1-1.21-.48l-1,.66-1.43-1.38.63-1a4.68,4.68,0,0,1-.52-1.19l-1.17-.24,0-2,1.17-.29a4.9,4.9,0,0,1,.47-1.2l-.66-1L178.45,95l1,.62Zm1.06,2.64a2.13,2.13,0,1,0,3,0A2.14,2.14,0,0,0,180.53,98.22Z" style="fill:#e0e0e0"></path><path d="M195.92,151.14h-31A3.19,3.19,0,0,1,161.7,148h0a3.19,3.19,0,0,1,3.19-3.19h31a3.19,3.19,0,0,1,3.19,3.19h0A3.19,3.19,0,0,1,195.92,151.14Z" style="fill:#e0e0e0"></path><path d="M195.92,134.89h-31a3.19,3.19,0,0,1-3.19-3.19h0a3.19,3.19,0,0,1,3.19-3.19h31a3.19,3.19,0,0,1,3.19,3.19h0A3.19,3.19,0,0,1,195.92,134.89Z" style="fill:#e0e0e0"></path><path d="M195.92,120h-31a3.19,3.19,0,0,1-3.19-3.19h0a3.19,3.19,0,0,1,3.19-3.19h31a3.19,3.19,0,0,1,3.19,3.19h0A3.19,3.19,0,0,1,195.92,120Z" style="fill:#e0e0e0"></path><path d="M279.32,118.19h-29.4a3.19,3.19,0,0,1-3.19-3.19h0a3.19,3.19,0,0,1,3.19-3.19h29.4a3.19,3.19,0,0,1,3.19,3.19h0A3.19,3.19,0,0,1,279.32,118.19Z" style="fill:#263238"></path><path d="M279.32,134.89h-29.4a3.19,3.19,0,0,1-3.19-3.19h0a3.19,3.19,0,0,1,3.19-3.19h29.4a3.19,3.19,0,0,1,3.19,3.19h0A3.19,3.19,0,0,1,279.32,134.89Z" style="fill:#e0e0e0"></path><path d="M279.32,152.14h-29.4a3.19,3.19,0,0,1-3.19-3.19h0a3.19,3.19,0,0,1,3.19-3.19h29.4a3.19,3.19,0,0,1,3.19,3.19h0A3.19,3.19,0,0,1,279.32,152.14Z" style="fill:#5E94FF"></path><path d="M266.78,185.5H249.92a3.19,3.19,0,0,1-3.19-3.19h0a3.19,3.19,0,0,1,3.19-3.19h16.86a3.19,3.19,0,0,1,3.19,3.19h0A3.19,3.19,0,0,1,266.78,185.5Z" style="fill:#263238"></path><path d="M266.78,202.8H249.92a3.19,3.19,0,0,1-3.19-3.19h0a3.19,3.19,0,0,1,3.19-3.19h16.86a3.19,3.19,0,0,1,3.19,3.19h0A3.19,3.19,0,0,1,266.78,202.8Z" style="fill:#263238"></path><path d="M316.88,202.8H286a3.19,3.19,0,0,1-3.19-3.19h0a3.19,3.19,0,0,1,3.19-3.19h30.91a3.19,3.19,0,0,1,3.19,3.19h0A3.19,3.19,0,0,1,316.88,202.8Z" style="fill:#e0e0e0"></path><path d="M299.4,218.17H268.48a3.19,3.19,0,0,1-3.19-3.19h0a3.19,3.19,0,0,1,3.19-3.19H299.4a3.19,3.19,0,0,1,3.19,3.19h0A3.19,3.19,0,0,1,299.4,218.17Z" style="fill:#5E94FF"></path><rect x="282.83" y="229.33" width="25.59" height="6.38" rx="3.11" style="fill:#5E94FF"></rect><path d="M305.23,270.09H286a3.19,3.19,0,0,1-3.19-3.19h0a3.19,3.19,0,0,1,3.19-3.19h19.21a3.19,3.19,0,0,1,3.19,3.19h0A3.19,3.19,0,0,1,305.23,270.09Z" style="fill:#5E94FF"></path><path d="M305.23,306.4H286a3.19,3.19,0,0,1-3.19-3.19h0A3.19,3.19,0,0,1,286,300h19.21a3.19,3.19,0,0,1,3.19,3.19h0A3.19,3.19,0,0,1,305.23,306.4Z" style="fill:#5E94FF"></path><path d="M352.45,306.4H318.78a3.19,3.19,0,0,1-3.19-3.19h0a3.19,3.19,0,0,1,3.19-3.19h33.67a3.19,3.19,0,0,1,3.19,3.19h0A3.19,3.19,0,0,1,352.45,306.4Z" style="fill:#455a64"></path><path d="M376,306.4h-4.85a3.19,3.19,0,0,1-3.19-3.19h0a3.19,3.19,0,0,1,3.19-3.19H376a3.19,3.19,0,0,1,3.19,3.19h0A3.19,3.19,0,0,1,376,306.4Z" style="fill:#e0e0e0"></path><path d="M350.43,270.09H322a3.19,3.19,0,0,1-3.19-3.19h0a3.19,3.19,0,0,1,3.19-3.19h28.45a3.19,3.19,0,0,1,3.19,3.19h0A3.19,3.19,0,0,1,350.43,270.09Z" style="fill:#e0e0e0"></path><path d="M412.84,286H322a3.19,3.19,0,0,1-3.19-3.19h0a3.19,3.19,0,0,1,3.19-3.19h90.86a3.19,3.19,0,0,1,3.19,3.19h0A3.19,3.19,0,0,1,412.84,286Z" style="fill:#e0e0e0"></path><path d="M423.33,270.09h-58a3.19,3.19,0,0,1-3.19-3.19h0a3.19,3.19,0,0,1,3.19-3.19h58a3.19,3.19,0,0,1,3.19,3.19h0A3.19,3.19,0,0,1,423.33,270.09Z" style="fill:#455a64"></path><rect x="316.78" y="229.33" width="30.41" height="6.38" rx="3.11" style="fill:#455a64"></rect><rect x="355.64" y="229.33" width="12.35" height="6.38" rx="3.11" style="fill:#e0e0e0"></rect><rect x="377.39" y="229.33" width="36.43" height="6.38" rx="3.11" style="fill:#e0e0e0"></rect><path d="M320.34,218.17h-6.89a3.19,3.19,0,0,1-3.19-3.19h0a3.19,3.19,0,0,1,3.19-3.19h6.89a3.18,3.18,0,0,1,3.18,3.19h0A3.18,3.18,0,0,1,320.34,218.17Z" style="fill:#263238"></path><path d="M378.69,218.17H334.83a3.19,3.19,0,0,1-3.19-3.19h0a3.19,3.19,0,0,1,3.19-3.19h43.86a3.19,3.19,0,0,1,3.19,3.19h0A3.19,3.19,0,0,1,378.69,218.17Z" style="fill:#e0e0e0"></path><path d="M326.42,118.19H297a3.19,3.19,0,0,1-3.19-3.19h0a3.19,3.19,0,0,1,3.19-3.19h29.4a3.19,3.19,0,0,1,3.19,3.19h0A3.19,3.19,0,0,1,326.42,118.19Z" style="fill:#455a64"></path><path d="M364.3,134.89H297a3.19,3.19,0,0,1-3.19-3.19h0a3.19,3.19,0,0,1,3.19-3.19H364.3a3.19,3.19,0,0,1,3.19,3.19h0A3.19,3.19,0,0,1,364.3,134.89Z" style="fill:#263238"></path><path d="M436.74,152.14H297a3.19,3.19,0,0,1-3.19-3.19h0a3.19,3.19,0,0,1,3.19-3.19H436.74a3.19,3.19,0,0,1,3.19,3.19h0A3.19,3.19,0,0,1,436.74,152.14Z" style="fill:#e0e0e0"></path><path d="M362.9,164.3H297a3.19,3.19,0,0,1-3.19-3.19h0a3.19,3.19,0,0,1,3.19-3.19H362.9a3.19,3.19,0,0,1,3.19,3.19h0A3.19,3.19,0,0,1,362.9,164.3Z" style="fill:#e0e0e0"></path><path d="M349.42,185.5H283.54a3.19,3.19,0,0,1-3.19-3.19h0a3.19,3.19,0,0,1,3.19-3.19h65.88a3.19,3.19,0,0,1,3.19,3.19h0A3.19,3.19,0,0,1,349.42,185.5Z" style="fill:#455a64"></path><path d="M386.3,185.5H364.22a3.19,3.19,0,0,1-3.19-3.19h0a3.19,3.19,0,0,1,3.19-3.19H386.3a3.19,3.19,0,0,1,3.19,3.19h0A3.19,3.19,0,0,1,386.3,185.5Z" style="fill:#5E94FF"></path><path d="M442.76,185.4H401.05a3.19,3.19,0,0,1-3.19-3.19h0a3.19,3.19,0,0,1,3.19-3.19h41.71a3.19,3.19,0,0,1,3.19,3.19h0A3.19,3.19,0,0,1,442.76,185.4Z" style="fill:#263238"></path><path d="M499.52,185.4H457.81a3.19,3.19,0,0,1-3.19-3.19h0a3.19,3.19,0,0,1,3.19-3.19h41.71a3.19,3.19,0,0,1,3.19,3.19h0A3.19,3.19,0,0,1,499.52,185.4Z" style="fill:#e0e0e0"></path><path d="M182.48,168.34H164.89a3.19,3.19,0,0,1-3.19-3.19h0a3.19,3.19,0,0,1,3.19-3.19h17.59a3.19,3.19,0,0,1,3.19,3.19h0A3.19,3.19,0,0,1,182.48,168.34Z" style="fill:#e0e0e0"></path><path d="M177.21,220H164.89a3.19,3.19,0,0,1-3.19-3.19h0a3.18,3.18,0,0,1,3.19-3.19h12.32a3.18,3.18,0,0,1,3.19,3.19h0A3.19,3.19,0,0,1,177.21,220Z" style="fill:#e0e0e0"></path><path d="M199.11,185.54H164.89a3.19,3.19,0,0,1-3.19-3.19h0a3.19,3.19,0,0,1,3.19-3.19h34.22a3.19,3.19,0,0,1,3.19,3.19h0A3.19,3.19,0,0,1,199.11,185.54Z" style="fill:#e0e0e0"></path><path d="M193.11,202.74H164.89a3.18,3.18,0,0,1-3.19-3.19h0a3.19,3.19,0,0,1,3.19-3.19h28.22a3.19,3.19,0,0,1,3.19,3.19h0A3.19,3.19,0,0,1,193.11,202.74Z" style="fill:#e0e0e0"></path><path d="M235.51,115a3.24,3.24,0,1,1-3.24-3.24A3.24,3.24,0,0,1,235.51,115Z" style="fill:#455a64"></path><path d="M235.51,131.65a3.24,3.24,0,1,1-3.24-3.24A3.24,3.24,0,0,1,235.51,131.65Z" style="fill:#455a64"></path><path d="M235.51,149a3.24,3.24,0,1,1-3.24-3.24A3.24,3.24,0,0,1,235.51,149Z" style="fill:#455a64"></path><path d="M235.51,166.26a3.24,3.24,0,1,1-3.24-3.24A3.24,3.24,0,0,1,235.51,166.26Z" style="fill:#455a64"></path><path d="M235.51,183.56a3.24,3.24,0,1,1-3.24-3.24A3.24,3.24,0,0,1,235.51,183.56Z" style="fill:#455a64"></path><path d="M235.51,200.87a3.24,3.24,0,1,1-3.24-3.24A3.24,3.24,0,0,1,235.51,200.87Z" style="fill:#455a64"></path><path d="M235.51,218.17a3.24,3.24,0,1,1-3.24-3.24A3.24,3.24,0,0,1,235.51,218.17Z" style="fill:#455a64"></path><path d="M235.51,235.48a3.24,3.24,0,1,1-3.24-3.24A3.24,3.24,0,0,1,235.51,235.48Z" style="fill:#455a64"></path><path d="M235.51,252.78a3.24,3.24,0,1,1-3.24-3.24A3.24,3.24,0,0,1,235.51,252.78Z" style="fill:#455a64"></path><path d="M235.51,270.09a3.24,3.24,0,1,1-3.24-3.24A3.24,3.24,0,0,1,235.51,270.09Z" style="fill:#455a64"></path><path d="M235.51,287.4a3.24,3.24,0,1,1-3.24-3.25A3.25,3.25,0,0,1,235.51,287.4Z" style="fill:#455a64"></path><path d="M235.51,304.7a3.24,3.24,0,1,1-3.24-3.24A3.24,3.24,0,0,1,235.51,304.7Z" style="fill:#455a64"></path></g><g id="freepik--device-2--inject-168"><path d="M642.67,464.41l-114.28-.07a24.79,24.79,0,0,1-24.88-24.7l.05-284.19a24.81,24.81,0,0,1,24.91-24.69l114.28.07a24.79,24.79,0,0,1,24.88,24.7l0,284.19A24.81,24.81,0,0,1,642.67,464.41Z" style="fill:#263238"></path><path d="M642.38,141l-22.16,0a5.48,5.48,0,0,0-5.38,5.58v4a5.48,5.48,0,0,1-5.38,5.57l-43.19,0a5.5,5.5,0,0,1-5.38-5.59v-4a5.5,5.5,0,0,0-5.38-5.59H528.32a17.36,17.36,0,0,0-17.44,17.29l-.06,277.39a17.37,17.37,0,0,0,17.43,17.3l114,.06a17.37,17.37,0,0,0,17.45-17.29l0-277.39A17.36,17.36,0,0,0,642.38,141Z" style="fill:#fff"></path><path d="M511,182.84h40.68a0,0,0,0,1,0,0V453.13a0,0,0,0,1,0,0H529.05A18.1,18.1,0,0,1,511,435V182.84A0,0,0,0,1,511,182.84Z" style="fill:#ebebeb"></path><path d="M594.42,201.71H575.05a2.16,2.16,0,0,1-2.11-2.21h0a2.16,2.16,0,0,1,2.11-2.21h19.37a2.16,2.16,0,0,1,2.1,2.21h0A2.16,2.16,0,0,1,594.42,201.71Z" style="fill:#263238"></path><path d="M595,213.25H575.65a2.16,2.16,0,0,1-2.1-2.21h0a2.16,2.16,0,0,1,2.1-2.21H595a2.16,2.16,0,0,1,2.1,2.21h0A2.16,2.16,0,0,1,595,213.25Z" style="fill:#e0e0e0"></path><path d="M595.26,226.45H575.88a2.16,2.16,0,0,1-2.1-2.21h0a2.16,2.16,0,0,1,2.1-2.21h19.38a2.16,2.16,0,0,1,2.1,2.21h0A2.16,2.16,0,0,1,595.26,226.45Z" style="fill:#5E94FF"></path><path d="M625.54,236.46H606.16a2.16,2.16,0,0,1-2.1-2.21h0a2.16,2.16,0,0,1,2.1-2.21h19.38a2.16,2.16,0,0,1,2.1,2.21h0A2.16,2.16,0,0,1,625.54,236.46Z" style="fill:#e0e0e0"></path><path d="M590.29,249.59H579.18a2.16,2.16,0,0,1-2.1-2.22h0a2.16,2.16,0,0,1,2.1-2.21h11.11a2.16,2.16,0,0,1,2.1,2.21h0A2.16,2.16,0,0,1,590.29,249.59Z" style="fill:#263238"></path><path d="M590.29,261.58H579.18a2.16,2.16,0,0,1-2.1-2.22h0a2.16,2.16,0,0,1,2.1-2.21h11.11a2.16,2.16,0,0,1,2.1,2.21h0A2.16,2.16,0,0,1,590.29,261.58Z" style="fill:#263238"></path><path d="M623.31,261.58H602.94a2.17,2.17,0,0,1-2.11-2.22h0a2.17,2.17,0,0,1,2.11-2.21h20.37a2.16,2.16,0,0,1,2.1,2.21h0A2.16,2.16,0,0,1,623.31,261.58Z" style="fill:#e0e0e0"></path><path d="M599.53,275.71H579.16a2.17,2.17,0,0,1-2.11-2.21h0a2.17,2.17,0,0,1,2.11-2.21h20.37a2.16,2.16,0,0,1,2.1,2.21h0A2.16,2.16,0,0,1,599.53,275.71Z" style="fill:#5E94FF"></path><rect x="586.2" y="281.24" width="16.86" height="4.42" rx="2.15" style="fill:#5E94FF"></rect><path d="M593.4,305H580.74a2.16,2.16,0,0,1-2.1-2.21h0a2.16,2.16,0,0,1,2.1-2.21H593.4a2.16,2.16,0,0,1,2.1,2.21h0A2.16,2.16,0,0,1,593.4,305Z" style="fill:#5E94FF"></path><path d="M593.4,330.22H580.74a2.16,2.16,0,0,1-2.1-2.21h0a2.16,2.16,0,0,1,2.1-2.21H593.4a2.16,2.16,0,0,1,2.1,2.21h0A2.16,2.16,0,0,1,593.4,330.22Z" style="fill:#5E94FF"></path><path d="M624.52,330.22h-22.2a2.16,2.16,0,0,1-2.1-2.21h0a2.16,2.16,0,0,1,2.1-2.21h22.2a2.16,2.16,0,0,1,2.1,2.21h0A2.16,2.16,0,0,1,624.52,330.22Z" style="fill:#455a64"></path><path d="M652.66,305.52H630.47a2.16,2.16,0,0,1-2.1-2.21h0a2.16,2.16,0,0,1,2.1-2.21h22.19a2.16,2.16,0,0,1,2.11,2.21h0A2.16,2.16,0,0,1,652.66,305.52Z" style="fill:#455a64"></path><path d="M626,314.93H603.81a2.16,2.16,0,0,1-2.11-2.21h0a2.16,2.16,0,0,1,2.11-2.21H626a2.16,2.16,0,0,1,2.1,2.21h0A2.16,2.16,0,0,1,626,314.93Z" style="fill:#455a64"></path><path d="M640.05,330.22h-3.2a2.16,2.16,0,0,1-2.1-2.21h0a2.16,2.16,0,0,1,2.1-2.21h3.2a2.16,2.16,0,0,1,2.1,2.21h0A2.16,2.16,0,0,1,640.05,330.22Z" style="fill:#e0e0e0"></path><path d="M623.19,305H604.43a2.16,2.16,0,0,1-2.1-2.21h0a2.16,2.16,0,0,1,2.1-2.21h18.76a2.16,2.16,0,0,1,2.1,2.21h0A2.16,2.16,0,0,1,623.19,305Z" style="fill:#e0e0e0"></path><rect x="608.57" y="281.24" width="20.04" height="4.42" rx="2.15" style="fill:#455a64"></rect><rect x="634.19" y="281.24" width="8.14" height="4.42" rx="2.15" style="fill:#e0e0e0"></rect><path d="M613.33,275.71h-4.54a2.16,2.16,0,0,1-2.1-2.21h0a2.16,2.16,0,0,1,2.1-2.21h4.54a2.16,2.16,0,0,1,2.1,2.21h0A2.16,2.16,0,0,1,613.33,275.71Z" style="fill:#263238"></path><path d="M651.79,275.71h-28.9a2.17,2.17,0,0,1-2.11-2.21h0a2.17,2.17,0,0,1,2.11-2.21h28.9a2.16,2.16,0,0,1,2.1,2.21h0A2.16,2.16,0,0,1,651.79,275.71Z" style="fill:#e0e0e0"></path><path d="M623.58,201.71H604.2a2.16,2.16,0,0,1-2.1-2.21h0a2.16,2.16,0,0,1,2.1-2.21h19.38a2.16,2.16,0,0,1,2.1,2.21h0A2.16,2.16,0,0,1,623.58,201.71Z" style="fill:#455a64"></path><path d="M647.85,213.25H603.51a2.16,2.16,0,0,1-2.1-2.21h0a2.16,2.16,0,0,1,2.1-2.21h44.34A2.16,2.16,0,0,1,650,211h0A2.16,2.16,0,0,1,647.85,213.25Z" style="fill:#263238"></path><path d="M648.7,226.36H605.28a2.16,2.16,0,0,1-2.1-2.21h0a2.16,2.16,0,0,1,2.1-2.21H648.7a2.16,2.16,0,0,1,2.1,2.21h0A2.16,2.16,0,0,1,648.7,226.36Z" style="fill:#e0e0e0"></path><path d="M644.76,249.59H601.34a2.16,2.16,0,0,1-2.1-2.22h0a2.16,2.16,0,0,1,2.1-2.21h43.42a2.16,2.16,0,0,1,2.1,2.21h0A2.16,2.16,0,0,1,644.76,249.59Z" style="fill:#455a64"></path><path d="M590.29,417.68H579.18a2.16,2.16,0,0,1-2.1-2.21h0a2.16,2.16,0,0,1,2.1-2.21h11.11a2.16,2.16,0,0,1,2.1,2.21h0A2.16,2.16,0,0,1,590.29,417.68Z" style="fill:#263238"></path><path d="M590.29,429.67H579.18a2.16,2.16,0,0,1-2.1-2.21h0a2.16,2.16,0,0,1,2.1-2.21h11.11a2.16,2.16,0,0,1,2.1,2.21h0A2.16,2.16,0,0,1,590.29,429.67Z" style="fill:#263238"></path><path d="M644.76,417.68H601.34a2.16,2.16,0,0,1-2.1-2.21h0a2.16,2.16,0,0,1,2.1-2.21h43.42a2.16,2.16,0,0,1,2.1,2.21h0A2.16,2.16,0,0,1,644.76,417.68Z" style="fill:#455a64"></path><path d="M534.73,240.65h-11.6a2.16,2.16,0,0,1-2.1-2.21h0a2.16,2.16,0,0,1,2.1-2.21h11.6a2.16,2.16,0,0,1,2.1,2.21h0A2.16,2.16,0,0,1,534.73,240.65Z" style="fill:#e0e0e0"></path><path d="M534.73,253h-11.6a2.16,2.16,0,0,1-2.1-2.21h0a2.16,2.16,0,0,1,2.1-2.21h11.6a2.16,2.16,0,0,1,2.1,2.21h0A2.16,2.16,0,0,1,534.73,253Z" style="fill:#e0e0e0"></path><path d="M534.73,265.27h-11.6a2.16,2.16,0,0,1-2.1-2.22h0a2.16,2.16,0,0,1,2.1-2.21h11.6a2.16,2.16,0,0,1,2.1,2.21h0A2.16,2.16,0,0,1,534.73,265.27Z" style="fill:#e0e0e0"></path><path d="M534.73,228.35h-11.6a2.17,2.17,0,0,1-2.1-2.22h0a2.16,2.16,0,0,1,2.1-2.21h11.6a2.16,2.16,0,0,1,2.1,2.21h0A2.17,2.17,0,0,1,534.73,228.35Z" style="fill:#e0e0e0"></path><path d="M534.73,216h-11.6a2.16,2.16,0,0,1-2.1-2.21h0a2.17,2.17,0,0,1,2.1-2.22h11.6a2.17,2.17,0,0,1,2.1,2.22h0A2.16,2.16,0,0,1,534.73,216Z" style="fill:#e0e0e0"></path><path d="M534.73,203.73h-11.6a2.16,2.16,0,0,1-2.1-2.21h0a2.16,2.16,0,0,1,2.1-2.21h11.6a2.16,2.16,0,0,1,2.1,2.21h0A2.16,2.16,0,0,1,534.73,203.73Z" style="fill:#e0e0e0"></path><path d="M531.26,277.57h-8.13a2.16,2.16,0,0,1-2.1-2.21h0a2.16,2.16,0,0,1,2.1-2.21h8.13a2.16,2.16,0,0,1,2.1,2.21h0A2.16,2.16,0,0,1,531.26,277.57Z" style="fill:#e0e0e0"></path><path d="M563.47,199.5a2.17,2.17,0,1,1-2.17-2.25A2.2,2.2,0,0,1,563.47,199.5Z" style="fill:#455a64"></path><path d="M563.47,211a2.17,2.17,0,1,1-2.17-2.25A2.21,2.21,0,0,1,563.47,211Z" style="fill:#455a64"></path><path d="M563.47,223a2.17,2.17,0,1,1-2.17-2.25A2.21,2.21,0,0,1,563.47,223Z" style="fill:#455a64"></path><path d="M563.47,235a2.17,2.17,0,1,1-2.17-2.25A2.21,2.21,0,0,1,563.47,235Z" style="fill:#455a64"></path><path d="M563.47,247a2.17,2.17,0,1,1-2.17-2.25A2.21,2.21,0,0,1,563.47,247Z" style="fill:#455a64"></path><path d="M563.47,259a2.17,2.17,0,1,1-2.17-2.25A2.2,2.2,0,0,1,563.47,259Z" style="fill:#455a64"></path><path d="M563.47,271a2.17,2.17,0,1,1-2.17-2.25A2.2,2.2,0,0,1,563.47,271Z" style="fill:#455a64"></path><path d="M563.47,283a2.17,2.17,0,1,1-2.17-2.25A2.2,2.2,0,0,1,563.47,283Z" style="fill:#455a64"></path><path d="M563.47,295a2.17,2.17,0,1,1-2.17-2.25A2.2,2.2,0,0,1,563.47,295Z" style="fill:#455a64"></path><path d="M563.47,307a2.17,2.17,0,1,1-2.17-2.24A2.21,2.21,0,0,1,563.47,307Z" style="fill:#455a64"></path><path d="M563.47,319a2.17,2.17,0,1,1-2.17-2.24A2.21,2.21,0,0,1,563.47,319Z" style="fill:#455a64"></path><path d="M563.47,331a2.17,2.17,0,1,1-2.17-2.24A2.21,2.21,0,0,1,563.47,331Z" style="fill:#455a64"></path><path d="M599.53,347.34H579.16a2.17,2.17,0,0,1-2.11-2.21h0a2.17,2.17,0,0,1,2.11-2.21h20.37a2.16,2.16,0,0,1,2.1,2.21h0A2.16,2.16,0,0,1,599.53,347.34Z" style="fill:#5E94FF"></path><rect x="586.2" y="352.87" width="16.86" height="4.42" rx="2.15" style="fill:#5E94FF"></rect><path d="M593.4,376.67H580.74a2.16,2.16,0,0,1-2.1-2.21h0a2.16,2.16,0,0,1,2.1-2.21H593.4a2.16,2.16,0,0,1,2.1,2.21h0A2.16,2.16,0,0,1,593.4,376.67Z" style="fill:#5E94FF"></path><path d="M593.4,401.85H580.74a2.16,2.16,0,0,1-2.1-2.21h0a2.16,2.16,0,0,1,2.1-2.21H593.4a2.16,2.16,0,0,1,2.1,2.21h0A2.16,2.16,0,0,1,593.4,401.85Z" style="fill:#5E94FF"></path><path d="M624.52,401.85h-22.2a2.16,2.16,0,0,1-2.1-2.21h0a2.16,2.16,0,0,1,2.1-2.21h22.2a2.16,2.16,0,0,1,2.1,2.21h0A2.16,2.16,0,0,1,624.52,401.85Z" style="fill:#455a64"></path><path d="M652.66,377.15H630.47a2.16,2.16,0,0,1-2.1-2.21h0a2.16,2.16,0,0,1,2.1-2.21h22.19a2.16,2.16,0,0,1,2.11,2.21h0A2.16,2.16,0,0,1,652.66,377.15Z" style="fill:#455a64"></path><path d="M626,386.56H603.81a2.16,2.16,0,0,1-2.11-2.21h0a2.16,2.16,0,0,1,2.11-2.21H626a2.16,2.16,0,0,1,2.1,2.21h0A2.16,2.16,0,0,1,626,386.56Z" style="fill:#455a64"></path><path d="M640.05,401.85h-3.2a2.16,2.16,0,0,1-2.1-2.21h0a2.16,2.16,0,0,1,2.1-2.21h3.2a2.16,2.16,0,0,1,2.1,2.21h0A2.16,2.16,0,0,1,640.05,401.85Z" style="fill:#e0e0e0"></path><path d="M623.19,376.67H604.43a2.16,2.16,0,0,1-2.1-2.21h0a2.16,2.16,0,0,1,2.1-2.21h18.76a2.16,2.16,0,0,1,2.1,2.21h0A2.16,2.16,0,0,1,623.19,376.67Z" style="fill:#e0e0e0"></path><rect x="608.57" y="352.87" width="20.04" height="4.42" rx="2.15" style="fill:#455a64"></rect><rect x="634.19" y="352.87" width="8.14" height="4.42" rx="2.15" style="fill:#e0e0e0"></rect><path d="M613.33,347.34h-4.54a2.16,2.16,0,0,1-2.1-2.21h0a2.16,2.16,0,0,1,2.1-2.21h4.54a2.16,2.16,0,0,1,2.1,2.21h0A2.16,2.16,0,0,1,613.33,347.34Z" style="fill:#263238"></path><path d="M651.79,347.34h-28.9a2.17,2.17,0,0,1-2.11-2.21h0a2.17,2.17,0,0,1,2.11-2.21h28.9a2.16,2.16,0,0,1,2.1,2.21h0A2.16,2.16,0,0,1,651.79,347.34Z" style="fill:#e0e0e0"></path><path d="M563.47,342.67a2.17,2.17,0,1,1-2.17-2.25A2.2,2.2,0,0,1,563.47,342.67Z" style="fill:#455a64"></path><path d="M563.47,354.67a2.17,2.17,0,1,1-2.17-2.25A2.2,2.2,0,0,1,563.47,354.67Z" style="fill:#455a64"></path><path d="M563.47,366.67a2.17,2.17,0,1,1-2.17-2.25A2.2,2.2,0,0,1,563.47,366.67Z" style="fill:#455a64"></path><path d="M563.47,378.67a2.17,2.17,0,1,1-2.17-2.25A2.2,2.2,0,0,1,563.47,378.67Z" style="fill:#455a64"></path><path d="M563.47,390.66a2.17,2.17,0,1,1-2.17-2.24A2.21,2.21,0,0,1,563.47,390.66Z" style="fill:#455a64"></path><path d="M563.47,402.66a2.17,2.17,0,1,1-2.17-2.24A2.21,2.21,0,0,1,563.47,402.66Z" style="fill:#455a64"></path><path d="M563.47,415.47a2.17,2.17,0,1,1-2.17-2.25A2.21,2.21,0,0,1,563.47,415.47Z" style="fill:#455a64"></path><path d="M563.47,428.28A2.17,2.17,0,1,1,561.3,426,2.2,2.2,0,0,1,563.47,428.28Z" style="fill:#455a64"></path><path d="M642.38,141l-22.16,0a5.48,5.48,0,0,0-5.38,5.58v4a5.48,5.48,0,0,1-5.38,5.57l-43.19,0a5.5,5.5,0,0,1-5.38-5.59v-4a5.5,5.5,0,0,0-5.38-5.59H528.32a17.36,17.36,0,0,0-17.44,17.29v24.65H659.8V158.26A17.36,17.36,0,0,0,642.38,141Z" style="fill:#f5f5f5"></path><circle cx="520.8" cy="173.13" r="2.75" style="fill:#e0e0e0"></circle><path d="M532,173.12a2.75,2.75,0,1,1-2.75-2.74A2.75,2.75,0,0,1,532,173.12Z" style="fill:#e0e0e0"></path><path d="M540.51,173.12a2.75,2.75,0,1,1-2.75-2.74A2.75,2.75,0,0,1,540.51,173.12Z" style="fill:#e0e0e0"></path><path d="M586.28,163.57a6.78,6.78,0,0,1,1.75-.76l.36-1.74,2.94,0,.42,1.72a7.09,7.09,0,0,1,1.78.7l1.48-1,2.11,2L596.2,166a7,7,0,0,1,.76,1.76l1.74.36,0,2.93-1.72.42a7.17,7.17,0,0,1-.7,1.78l1,1.48-2,2.11-1.51-.91a7.81,7.81,0,0,1-1.76.76l-.36,1.73-2.93.05-.42-1.72a6.8,6.8,0,0,1-1.78-.7L585,177l-2.12-2,.92-1.52a7.14,7.14,0,0,1-.76-1.75l-1.73-.36-.06-2.94L583,168a7.09,7.09,0,0,1,.7-1.78l-1-1.48,2-2.11,1.52.92Zm1.56,3.9a3.15,3.15,0,1,0,4.45-.07A3.14,3.14,0,0,0,587.84,167.47Z" style="fill:#e0e0e0"></path></g><g id="freepik--Character--inject-168"><path d="M195.49,181.74l5,40.44c.71,6.92,1.81,17.17,12.7,15.54h0c9.35-2.13,10.82-11.38,10.15-17.84-.32-3.07-.58-5.62-.59-5.94,0,0,10.26-2.05,10-12.38-.15-5-1.3-15.26-2.45-24.53a19.26,19.26,0,0,0-19.94-16.87l-1,0C198.6,161.29,194.11,171.05,195.49,181.74Z" style="fill:#ffceb3"></path><path d="M222.78,213.94a25,25,0,0,1-13.62-3.41s3.6,7.41,13.87,6Z" style="fill:#ff9c65"></path><path d="M213.94,183.8c-.22.09-1.33-.57-3-.81s-3.05.06-3.21-.08.16-.24.75-.39a7.37,7.37,0,0,1,2.6-.07,6.61,6.61,0,0,1,2.39.79C213.91,183.53,214,183.77,213.94,183.8Z" style="fill:#263238"></path><path d="M213.63,187.55a1.4,1.4,0,0,1-1.29,1.47,1.35,1.35,0,0,1-1.49-1.2,1.41,1.41,0,0,1,1.29-1.47A1.34,1.34,0,0,1,213.63,187.55Z" style="fill:#263238"></path><path d="M219.2,194.65a10.84,10.84,0,0,1,2.56-.58c.4-.06.78-.15.84-.43a2.13,2.13,0,0,0-.32-1.19c-.43-1-.87-2-1.33-3-1.86-4.32-3.22-7.88-3-8s1.82,3.38,3.67,7.7l1.28,3.06a2.36,2.36,0,0,1,.28,1.58,1,1,0,0,1-.64.62,2.78,2.78,0,0,1-.69.12A10.21,10.21,0,0,1,219.2,194.65Z" style="fill:#263238"></path><path d="M212,176.86c-.12.4-1.52.27-3.16.54s-2.94.8-3.17.45c-.11-.16.11-.54.63-.94a5,5,0,0,1,2.32-1,5.16,5.16,0,0,1,2.5.2C211.78,176.37,212.09,176.67,212,176.86Z" style="fill:#263238"></path><path d="M228.7,178.15c-.15.33-1.53.14-3.15.28s-3,.5-3.16.19c-.09-.14.14-.45.68-.76a5.61,5.61,0,0,1,2.35-.68,6,6,0,0,1,2.45.31C228.46,177.72,228.76,178,228.7,178.15Z" style="fill:#263238"></path><path d="M196.68,189.49c-.19-.06-7.59-1.69-6.85,5.7s8,5.11,8,4.9S196.68,189.49,196.68,189.49Z" style="fill:#ffceb3"></path><path d="M195.29,197.52s-.12.1-.32.23a1.32,1.32,0,0,1-1,.11,3.21,3.21,0,0,1-1.77-2.71,4.24,4.24,0,0,1,.18-1.87,1.48,1.48,0,0,1,.87-1.09.65.65,0,0,1,.79.28c.12.19.09.35.13.35s.15-.14.06-.43a.85.85,0,0,0-.34-.44,1,1,0,0,0-.73-.11,1.79,1.79,0,0,0-1.23,1.28,4.39,4.39,0,0,0-.24,2.1c.2,1.48,1.1,2.8,2.2,3a1.44,1.44,0,0,0,1.16-.31C195.3,197.7,195.32,197.53,195.29,197.52Z" style="fill:#ff9c65"></path><path d="M220,199.5c0-.2-1.44-.05-2.83-.88a7.64,7.64,0,0,1-1.61-1.33c-.39-.39-.66-.63-.72-.58s.09.36.41.83a5.23,5.23,0,0,0,1.63,1.57,4.26,4.26,0,0,0,2.2.58C219.69,199.69,220,199.56,220,199.5Z" style="fill:#263238"></path><path d="M228.87,181.68c-.14.18-1.42.21-3,.9s-2.59,1.61-2.8,1.58,0-.28.45-.7a7.68,7.68,0,0,1,2.2-1.39,7,7,0,0,1,2.44-.59C228.72,181.47,229,181.59,228.87,181.68Z" style="fill:#263238"></path><path d="M227.79,186.31a1.41,1.41,0,0,1-1.29,1.47,1.34,1.34,0,0,1-1.49-1.2,1.39,1.39,0,0,1,1.28-1.46A1.34,1.34,0,0,1,227.79,186.31Z" style="fill:#263238"></path><path d="M243.06,166.23a1.7,1.7,0,0,0-.89-.88,5.15,5.15,0,0,0-2.67-.12,15,15,0,0,1-6.59-.86,7.27,7.27,0,0,0,1.73-1.54,4.42,4.42,0,0,0,.76-4.51,1,1,0,0,0-.63-.61c-.47-.09-.81.41-1.09.8a3.83,3.83,0,0,1-3.38,1.92,6.36,6.36,0,0,1-2.75-.48l-.1-.09-1.2-1h0c-2.93-2.3-5.41-3.85-7.84-4.52a23.91,23.91,0,0,0-12.81.48c-3.45,1.34-6.31,4.6-6.39,8.31-2.19-1.46-5.19-1.09-7.51.17l-.06,0c-2.6,1.28-3.8,4.32-4.28,7.17,0,.16-.05.32-.07.47a10.91,10.91,0,0,1-3.23,4c-.25.18-.53.4-.52.7s.28.52.54.67a5.49,5.49,0,0,0,2.3.66,13.17,13.17,0,0,1-.67,2c-.25.55-.54,1.21-.21,1.72a1.14,1.14,0,0,0,1.25.38,3.29,3.29,0,0,0,1.2-.72l-.66,2.28a6.42,6.42,0,0,0,2.93-.54,72,72,0,0,0,2.77,7.41c1.14-.13,2.18-.52,2.95,0,1.05.74,1.66,2.29,3.16,1.5.77-.4,1.31-2.17,1.48-3a40.29,40.29,0,0,0-.23-17.11A12.93,12.93,0,0,1,204,167.6l-.11.12c2.75-1.32,5.87-2.67,8.74-1.64,2.23.79,3.72,2.83,5.49,4.39a15.27,15.27,0,0,0,11.67,4c.76,3,.88,7,1.36,9.86l2.13-4.95v0c.16-.36.29-.72.41-1.08l0-.11h0a17.26,17.26,0,0,1,.62-1.74l0,0a1.81,1.81,0,0,0,2.35-2.72,4.27,4.27,0,0,0-1-.77,2.87,2.87,0,0,0,2.79.39,2.26,2.26,0,0,0,1.33-2.4,1.94,1.94,0,0,0-1.31-1.39,6.45,6.45,0,0,0,3.56-1.23A1.87,1.87,0,0,0,243.06,166.23Z" style="fill:#263238"></path><path d="M202.57,164a8.84,8.84,0,0,0-.92,1.06,7.42,7.42,0,0,0-1.17,3.58,13,13,0,0,0,0,2.63c.1.95.29,1.95.49,3a28.45,28.45,0,0,1,.47,3.35,12.07,12.07,0,0,1,0,1.8,3.7,3.7,0,0,1-.52,1.8,1.58,1.58,0,0,1-1.39.66,2.42,2.42,0,0,1-1.39-.59,5.36,5.36,0,0,1-1.28-2.49h.21a8.58,8.58,0,0,1-1,2.29,3.07,3.07,0,0,1-1.87,1.32,2,2,0,0,1-1.08-.06,1.73,1.73,0,0,1-.8-.63,1.81,1.81,0,0,1-.32-.88,1.25,1.25,0,0,1,.24-.83l.12.08a6.76,6.76,0,0,1-2,1.91c-.28.16-.5.27-.65.34a.75.75,0,0,1-.24.09,1,1,0,0,1,.22-.13,6.82,6.82,0,0,0,.63-.37,7,7,0,0,0,1.93-1.92l.12.08a1.32,1.32,0,0,0,.1,1.53,1.55,1.55,0,0,0,.73.55,1.76,1.76,0,0,0,1,.05,2.89,2.89,0,0,0,1.73-1.25,8.41,8.41,0,0,0,1-2.24l.1-.34.11.35a5.2,5.2,0,0,0,1.23,2.37,2.11,2.11,0,0,0,1.24.53,1.31,1.31,0,0,0,1.18-.56,3.45,3.45,0,0,0,.48-1.68,11.56,11.56,0,0,0,0-1.76,26.48,26.48,0,0,0-.45-3.33c-.19-1.05-.37-2.06-.47-3a12.56,12.56,0,0,1,0-2.67,7.21,7.21,0,0,1,1.27-3.62A4.11,4.11,0,0,1,202.57,164Z" style="fill:#455a64"></path><path d="M235.4,170.26l-.07.08-.24.22a3.09,3.09,0,0,1-.4.32,4.3,4.3,0,0,1-.59.4,9,9,0,0,1-4.29,1.3,11.7,11.7,0,0,1-6.44-1.56,20.37,20.37,0,0,1-6-5.51c-.89-1.15-1.64-2.35-2.45-3.45a14.18,14.18,0,0,0-2.64-2.85,7.07,7.07,0,0,0-3.16-1.45,4.92,4.92,0,0,0-1.58,0,5.5,5.5,0,0,0-1.39.43,5.9,5.9,0,0,0-2,1.54,6.06,6.06,0,0,0-1,1.63,6.89,6.89,0,0,0-.35,1.6v-.11c0-.09,0-.19,0-.32a5.44,5.44,0,0,1,.25-1.2,5.87,5.87,0,0,1,1-1.69,6.13,6.13,0,0,1,2-1.6,5.93,5.93,0,0,1,1.44-.47,5,5,0,0,1,1.64,0,7,7,0,0,1,3.26,1.47,13.29,13.29,0,0,1,2.7,2.88c.82,1.11,1.57,2.31,2.45,3.45a20.25,20.25,0,0,0,5.94,5.45,11.53,11.53,0,0,0,6.33,1.59,9.12,9.12,0,0,0,4.25-1.21A13,13,0,0,0,235.4,170.26Z" style="fill:#455a64"></path><path d="M235.81,165.65s-.11.12-.34.3a7.09,7.09,0,0,1-1,.68,10.88,10.88,0,0,1-1.66.77,12.86,12.86,0,0,1-2.16.54,11.58,11.58,0,0,1-2.24.11,10.55,10.55,0,0,1-1.8-.25,8.45,8.45,0,0,1-1.18-.35c-.27-.11-.42-.17-.41-.19s.61.18,1.62.37a12,12,0,0,0,1.78.2,14,14,0,0,0,2.19-.13,12.55,12.55,0,0,0,2.13-.51,12.71,12.71,0,0,0,1.65-.71C235.27,166,235.78,165.62,235.81,165.65Z" style="fill:#455a64"></path><path d="M228.67,235.88l-64.55.8a5.86,5.86,0,0,0-5.79,5.81l-.91,114,87,1.19-9.81-116.38A5.86,5.86,0,0,0,228.67,235.88Z" style="fill:#455a64"></path><path d="M302.73,430.47l-.35,22s22.24,7.76,22.57,11.83l-42.69.84-.85-34.31Z" style="fill:#5E94FF"></path><path d="M289.14,450.89a1.74,1.74,0,0,0-1.17,2,1.68,1.68,0,0,0,2,1.17,1.84,1.84,0,0,0,1.22-2.14,1.74,1.74,0,0,0-2.2-1" style="fill:#e0e0e0"></path><path d="M282.26,465.14l-.14-3.46,41.11.49s1.91.79,1.72,2.13Z" style="fill:#e0e0e0"></path><path d="M303.06,452.24c0,.21-1,.33-2.05,1s-1.54,1.58-1.74,1.5.1-1.29,1.34-2.11S303.1,452.05,303.06,452.24Z" style="fill:#263238"></path><path d="M307.58,454c.05.2-.85.57-1.54,1.47s-.87,1.83-1.08,1.82-.37-1.18.51-2.27S307.57,453.81,307.58,454Z" style="fill:#263238"></path><path d="M310.23,459.32c-.19,0-.5-1,0-2.14s1.48-1.63,1.57-1.46-.5.8-.91,1.75S310.43,459.29,310.23,459.32Z" style="fill:#263238"></path><path d="M302.59,447.22c-.09.19-1-.08-2.22,0s-2.09.49-2.2.31.75-.94,2.14-1S302.69,447.05,302.59,447.22Z" style="fill:#263238"></path><path d="M238.59,317.34s12.64,1.9,25.67,4.32c15.61,2.9,32.23,6.53,34.46,8.28,4.09,3.21,5,12,6.71,22.77s2.15,91.15,2.15,91.15l-29,.84-5.74-84.3s-42.34,0-51-.07c-7-.05-25.93.74-33.11-3-11.29-6-9.18-28.61-9.18-28.61,2.82-2.42,51.11-16.72,51.11-16.72Z" style="fill:#263238"></path><path d="M310,377.61l4.17,22.19s23.95,3.2,25.12,7.23l-42.72,9.63-7.92-34.29Z" style="fill:#5E94FF"></path><path d="M300.54,400.92a1.81,1.81,0,0,0-.76,2.27A1.73,1.73,0,0,0,302,404a1.89,1.89,0,0,0,.79-2.4,1.78,1.78,0,0,0-2.41-.55" style="fill:#e0e0e0"></path><path d="M296.74,417.57l-.77-3.32,41.14-9s2.09.4,2.18,1.79Z" style="fill:#e0e0e0"></path><path d="M314.81,399.42c0,.21-1,.54-1.85,1.44s-1.23,1.91-1.44,1.87-.17-1.32.91-2.39S314.82,399.22,314.81,399.42Z" style="fill:#263238"></path><path d="M319.71,400.27c.1.19-.73.74-1.24,1.79s-.5,2-.71,2.06-.61-1.12.05-2.4S319.66,400.07,319.71,400.27Z" style="fill:#263238"></path><path d="M323.47,405.05c-.18.09-.71-.89-.43-2.15s1.15-1.94,1.28-1.78-.34.9-.55,1.94S323.67,405,323.47,405.05Z" style="fill:#263238"></path><path d="M313.3,394.47c0,.21-1.07.14-2.23.49s-2,.92-2.14.77.57-1.1,1.94-1.49S313.37,394.29,313.3,394.47Z" style="fill:#263238"></path><path d="M289.23,300.9s10-.71,12.14,7.84c3,11.85,16.08,82.69,16.08,82.69l-29.52,5.71L272.36,328l-28-4.56-11.53-4.61s6.52-6.94,20-11.24C262.06,304.68,289.23,300.9,289.23,300.9Z" style="fill:#263238"></path><path d="M272.46,329.79a16.51,16.51,0,0,1,8.24-7.16,9.73,9.73,0,0,0-5,2.53,12,12,0,0,0-2.56,3.1A4.11,4.11,0,0,0,272.46,329.79Z" style="fill:#455a64"></path><path d="M278.89,315.77s-.21.1-.55.36a11.24,11.24,0,0,0-1.33,1.21A17.07,17.07,0,0,0,272.36,328a11.2,11.2,0,0,0,0,1.79c0,.42.07.65.11.65s0-.94.2-2.42a19.26,19.26,0,0,1,4.57-10.47C278.24,316.44,278.94,315.83,278.89,315.77Z" style="fill:#455a64"></path><path d="M302.71,315.77a3.57,3.57,0,0,1,.09.36c.05.26.13.61.23,1.08.2,1,.48,2.37.85,4.19.74,3.67,1.8,9,3.13,15.7,2.64,13.43,6.35,32.34,10.66,54.29l.05.22-.22,0L288,397.37l-.22.05-.05-.23c-.16-.69-.33-1.43-.49-2.18-5.73-25.5-11-48.91-15-67l.15.14L243,323.33l-8-1.36-2.1-.37-.71-.14s.25,0,.72.09l2.11.31,8.05,1.26,29.39,4.7.12,0,0,.13c4.08,18,9.37,41.45,15.13,66.94.17.75.33,1.49.49,2.18l-.28-.18,29.53-5.7-.18.26c-4.24-22-7.9-40.88-10.5-54.32-1.28-6.7-2.29-12-3-15.73-.33-1.82-.6-3.23-.78-4.2l-.19-1.08C302.72,315.89,302.71,315.77,302.71,315.77Z" style="fill:#455a64"></path><path d="M238.49,227.4s5.48,3.63,7.89,14.38c1.94,8.62,5,25,5,25l11.47,7.53a2.57,2.57,0,0,1,.83,3.42c-2.69,4.77-9.47,16.09-13.89,17.45-5.63,1.74-11.06-2.68-11.06-2.68Z" style="fill:#5E94FF"></path><path d="M238.49,227.4l-13.21-5.32-2.25-4.4L221,226.79,199.48,214,198,219.34s-20.5,8.6-23.16,11c-3.27,3,5.66,52.62,5.66,52.62s-3.24,39.84-2.05,47.77A223.24,223.24,0,0,1,204.67,325c11.92-1.63,26.32-6.2,26.32-6.2l13-8.05Z" style="fill:#5E94FF"></path><path d="M240.46,249a3,3,0,0,1,.07.66c0,.49.05,1.12.09,1.91.08,1.72.19,4.1.32,7,.27,5.94.69,14.13,1.21,23.18s1.06,17.24,1.51,23.16c.23,2.93.42,5.31.56,7,.06.79.11,1.42.15,1.9a3.08,3.08,0,0,1,0,.67,4.9,4.9,0,0,1-.11-.66c-.07-.48-.15-1.11-.25-1.89-.19-1.66-.44-4.05-.7-7-.54-5.92-1.12-14.11-1.65-23.16s-.89-17.26-1.08-23.2c-.09-3-.14-5.37-.16-7,0-.8,0-1.43,0-1.92A5.69,5.69,0,0,1,240.46,249Z" style="fill:#263238"></path><path d="M186.56,245c-.08,0,0-1.06-.2-2.73A13.28,13.28,0,0,0,179,232c-1.51-.74-2.55-1-2.53-1a2,2,0,0,1,.74.09,11.73,11.73,0,0,1,1.93.65,12.7,12.7,0,0,1,7.56,10.45,10.64,10.64,0,0,1,0,2A2,2,0,0,1,186.56,245Z" style="fill:#263238"></path><path d="M242.79,297l-6.3-6.39-13-3.14s-11.87,3.4-12.15,3.39-10.48-3.39-10.48-3.39l-3.36,13.09,18.09,1.18,20.66-.79s1.07-1,.43-1.61,3.46,1.11,3.94,1.13,1.42.37,2.05-.37C243.16,299.59,243.75,298,242.79,297Z" style="fill:#ffceb3"></path><path d="M174.65,230.37s-4.59,2.88-6.86,11.83-9.37,45.93-7.35,51.4,46.81,12.51,46.81,12.51l5.11-16.2-31.09-10.3s4.55-17.78,4.8-25S174.65,230.37,174.65,230.37Z" style="fill:#5E94FF"></path><path d="M236.73,299.33a11.86,11.86,0,0,1-2-.56c-1.26-.39-3-.9-4.94-1.37s-3.72-.83-5-1.08a11.38,11.38,0,0,1-2.09-.46,8.78,8.78,0,0,1,2.14.15,48,48,0,0,1,5.08,1,46,46,0,0,1,4.93,1.5A8.16,8.16,0,0,1,236.73,299.33Z" style="fill:#ff9c65"></path><path d="M242.79,297a25.36,25.36,0,0,1-2.88-.88c-1.76-.57-4.22-1.27-7-2a37.69,37.69,0,0,0-7-1.66,18.49,18.49,0,0,0-3,.11,2.57,2.57,0,0,1,.78-.25,8.46,8.46,0,0,1,2.22-.17,31.25,31.25,0,0,1,7.13,1.54c2.74.73,5.21,1.48,7,2.13.88.32,1.57.61,2,.81A3.37,3.37,0,0,1,242.79,297Z" style="fill:#ff9c65"></path><path d="M172.33,283a10.21,10.21,0,0,1,9.1-3.38,23.28,23.28,0,0,0-4.81,1A22.93,22.93,0,0,0,172.33,283Z" style="fill:#263238"></path><path d="M167.38,297.81l.2,0,.56.15c.48.15,1.22.33,2.17.56,1.91.46,4.71,1.08,8.24,1.81,7.07,1.45,17.07,3.38,28.74,5.52l-.25.16c1.58-5,3.3-10.52,5.09-16.21l.15.3-1.76-.59-29.31-9.74-.17-.06,0-.17c1.6-8.46,2.94-15.5,3.88-20.46.47-2.43.85-4.36,1.11-5.71.13-.63.23-1.13.31-1.5a2,2,0,0,1,.13-.51,4.93,4.93,0,0,1-.07.52c-.06.37-.14.87-.25,1.51-.24,1.36-.57,3.29-1,5.74-.9,5-2.18,12-3.71,20.48l-.13-.23,29.33,9.68,1.76.59.22.07-.07.22c-1.79,5.69-3.52,11.17-5.11,16.2l-.06.19-.2,0c-11.67-2.18-21.66-4.17-28.71-5.7-3.53-.76-6.32-1.43-8.22-1.94-.95-.25-1.68-.46-2.17-.63l-.55-.19Z" style="fill:#263238"></path><path d="M254.38,280.61a2.87,2.87,0,0,1-.88-.33,12.08,12.08,0,0,1-2.18-1.38,14.77,14.77,0,0,1-4.89-6.88,12.57,12.57,0,0,1-.69-4.67,4,4,0,0,1,1.94-3.31,2.51,2.51,0,0,1,2.58.11c.52.38.61.76.59.76s-.2-.3-.7-.59a2.34,2.34,0,0,0-2.29,0,3.69,3.69,0,0,0-1.64,3,12.7,12.7,0,0,0,.7,4.46,15.51,15.51,0,0,0,4.63,6.77C253.18,280,254.43,280.52,254.38,280.61Z" style="fill:#263238"></path><path d="M243.8,273.21a6.36,6.36,0,0,1,.9-2.31,6.13,6.13,0,0,1,1.36-2.08,6,6,0,0,1-.9,2.32C244.54,272.35,243.93,273.28,243.8,273.21Z" style="fill:#263238"></path><path d="M225.39,221.73a8.69,8.69,0,0,1-.14,2.25c-.16,1.38-.41,3.28-.72,5.38q-.08.51-.15,1l-.11.75-.37-.66a27.67,27.67,0,0,0-2.16-3.29l.35-.12a12.67,12.67,0,0,1-.28,2.68,12.18,12.18,0,0,1-.11-2.69v-.53l.35.41a21.28,21.28,0,0,1,2.3,3.29l-.48.09.15-1c.31-2.09.61-4,.86-5.36A9.87,9.87,0,0,1,225.39,221.73Z" style="fill:#263238"></path><path d="M221.32,230.26a5.47,5.47,0,0,1-.7-.88l-1.79-2.52.31-.05c-.41,1.59-.91,3.49-1.46,5.61l-.08.31-.27-.16c-1.78-1-3.75-2.24-5.8-3.53-3.92-2.48-7.38-4.87-9.84-6.66-1.23-.9-2.21-1.64-2.88-2.17a6.13,6.13,0,0,1-1-.86,5.69,5.69,0,0,1,1.13.7l3,2c2.51,1.72,6,4.06,9.91,6.53,2,1.29,4,2.49,5.76,3.56l-.35.14,1.59-5.58.11-.37.2.32,1.66,2.61A4.35,4.35,0,0,1,221.32,230.26Z" style="fill:#263238"></path><path d="M225.93,287.92a1.88,1.88,0,0,1-.11-.56c-.06-.44-.13-1-.22-1.64-.17-1.43-.4-3.5-.66-6.05-.52-5.11-1.16-12.18-1.72-20s-.93-14.9-1.14-20c-.1-2.56-.17-4.64-.2-6.08,0-.67,0-1.21,0-1.65a2.17,2.17,0,0,1,0-.58,2.45,2.45,0,0,1,.07.58q.06.65.12,1.65c.1,1.5.22,3.56.37,6.07.3,5.12.73,12.2,1.29,20s1.14,14.88,1.57,20c.2,2.51.37,4.56.49,6.06,0,.67.09,1.22.12,1.66A3.52,3.52,0,0,1,225.93,287.92Z" style="fill:#263238"></path><path d="M197.83,311.08c0,.13-7.56.24-16.89.24s-16.9-.11-16.9-.24,7.57-.24,16.9-.24S197.83,311,197.83,311.08Z" style="fill:#263238"></path><path d="M183.29,302.35c0,.13-4.51.24-10.07.24s-10.07-.11-10.07-.24,4.5-.23,10.07-.23S183.29,302.22,183.29,302.35Z" style="fill:#263238"></path><path d="M272.86,264.14l-19.38,34.3-44.84,1-.11,2.08,44.49-.33,1.41-.05,47,.09,9.49-16.37,11.75-19a1.72,1.72,0,0,0-1.41-2.7l-46.89.18A1.72,1.72,0,0,0,272.86,264.14Z" style="fill:#e0e0e0"></path><path d="M287.88,281.82a2,2,0,1,0,3-.35A2.11,2.11,0,0,0,287.88,281.82Z" style="fill:#fff"></path><path d="M278,263.27c.11.07-4.62,8.59-10.57,19s-10.86,18.86-11,18.8,4.62-8.59,10.57-19S277.86,263.21,278,263.27Z" style="fill:#263238"></path><path d="M250.16,368.83s-21.35,9.74-42.12,9.74c-19.24,0-40.75-9.68-40.75-9.68Z" style="fill:#e0e0e0"></path><rect x="205.87" y="369.76" width="8.24" height="86.28" transform="translate(419.97 825.79) rotate(180)" style="fill:#e0e0e0"></rect><rect x="173.06" y="452.46" width="73.11" height="5.06" transform="translate(419.22 909.99) rotate(180)" style="fill:#e0e0e0"></rect><path d="M237.59,459.7a5.58,5.58,0,1,0,5.58-5.58A5.58,5.58,0,0,0,237.59,459.7Z" style="fill:#263238"></path><path d="M205.11,459.7a5.58,5.58,0,1,0,5.58-5.58A5.58,5.58,0,0,0,205.11,459.7Z" style="fill:#263238"></path><path d="M167.48,459.7a5.58,5.58,0,1,0,5.58-5.58A5.58,5.58,0,0,0,167.48,459.7Z" style="fill:#263238"></path><rect x="208.04" y="400.81" width="11.2" height="4.64" transform="translate(427.28 806.26) rotate(180)" style="fill:#e0e0e0"></rect><rect x="217.2" y="397.56" width="4.08" height="11.13" transform="translate(438.49 806.26) rotate(180)" style="fill:#e0e0e0"></rect><path d="M166,368.83h97.53c3.65,0,6.61-2,6.61-6.2h0a6.41,6.41,0,0,0-6.61-6.19H157.42v4.36A8.31,8.31,0,0,0,166,368.83Z" style="fill:#455a64"></path><path d="M170.67,310.89c.13,0,.24,10.76.24,24s-.11,24-.24,24-.24-10.76-.24-24S170.54,310.89,170.67,310.89Z" style="fill:#263238"></path><path d="M267.32,354.89a10,10,0,0,1,1.32,1.85,12.3,12.3,0,0,1,1.58,6.27,5.73,5.73,0,0,1-1.61,4.36,5.38,5.38,0,0,1-2.36,1.35,10.46,10.46,0,0,1-2.92.26l-13.62,0-78.89.13a49.66,49.66,0,0,1-5.58-.16,9.29,9.29,0,0,1-5-2.43,10.19,10.19,0,0,1-2.64-4.79,16.15,16.15,0,0,1-.44-5.36v0c.26-25.6.49-48.05.66-64.12.1-8,.19-14.43.24-18.87,0-2.2.07-3.9.09-5.07,0-.57,0-1,0-1.32s0-.44,0-.44a3.72,3.72,0,0,1,0,.44c0,.32,0,.75,0,1.32v5.07c0,4.44-.05,10.86-.09,18.87-.12,16.07-.29,38.52-.48,64.12h0v0a15.67,15.67,0,0,0,.43,5.18,9.7,9.7,0,0,0,2.5,4.54,8.71,8.71,0,0,0,4.71,2.28,49.86,49.86,0,0,0,5.5.16l78.89,0,13.62,0a10.57,10.57,0,0,0,2.85-.23,5.2,5.2,0,0,0,2.26-1.27A5.47,5.47,0,0,0,270,363a12.35,12.35,0,0,0-1.46-6.22,13.27,13.27,0,0,0-.9-1.42C267.42,355.06,267.32,354.89,267.32,354.89Z" style="fill:#263238"></path><path d="M158.9,310.75l45,.54a1.17,1.17,0,0,1,1.11,1.33l-6.75,56.23h10.57L214.28,307a3.62,3.62,0,0,0-3.47-4.07l-52.59-.31Z" style="fill:#455a64"></path><path d="M158.9,310.75s0-.16-.06-.5-.09-.86-.15-1.53c-.13-1.39-.31-3.44-.56-6.13v-.11h.1l43.6.13,7.59,0a13.52,13.52,0,0,1,2,.08,3.76,3.76,0,0,1,1.86.92,3.84,3.84,0,0,1,1.12,1.78,5.16,5.16,0,0,1,.08,2.1c-.47,5.41-1,11.06-1.47,16.9-1,11.68-2.12,24.14-3.25,37.07q-.33,3.72-.65,7.37l0,.24H198l0-.29c1.76-14.57,3.41-28.28,4.91-40.66.37-3.09.74-6.1,1.09-9,.18-1.46.35-2.89.52-4.31.09-.7.18-1.4.26-2.1a1,1,0,0,0-.89-1.23l-15.27-.23-21.86-.35-5.86-.11-1.51,0c-.34,0-.5,0-.5,0H161l5.91,0,21.84.18,15.2.14a1.38,1.38,0,0,1,1,.56,1.47,1.47,0,0,1,.24,1.14c-.08.69-.17,1.39-.25,2.1-.17,1.41-.34,2.85-.51,4.31-.35,2.92-.7,5.93-1.07,9-1.48,12.38-3.11,26.09-4.85,40.66l-.26-.29h10.57l-.26.24q.31-3.65.65-7.37c1.14-12.94,2.24-25.4,3.28-37.08q.78-8.76,1.5-16.9a4.74,4.74,0,0,0-.06-1.92,3.49,3.49,0,0,0-1-1.57,3.36,3.36,0,0,0-1.64-.82,15.06,15.06,0,0,0-1.92-.07l-7.59-.05-43.59-.38.1-.1q.28,4,.44,6.09c.05.68.08,1.19.11,1.56Z" style="fill:#263238"></path><circle cx="204.18" cy="363.45" r="1.37" style="fill:#263238"></circle><polygon points="111.38 279.76 114.67 301.43 133.82 301.43 138.27 280.08 111.38 279.76" style="fill:#5E94FF"></polygon><path d="M135.59,293.65c0,.06-4.91.11-11,.11s-11-.05-11-.11,4.91-.12,11-.12S135.59,293.58,135.59,293.65Z" style="fill:#fafafa"></path><path d="M135.67,292.58c0,.06-4.94.11-11,.11s-11-.05-11-.11,4.94-.11,11-.11S135.67,292.52,135.67,292.58Z" style="fill:#fafafa"></path><path d="M135.63,291.38c0,.06-4.94.11-11,.11s-11-.05-11-.11,4.94-.11,11-.11S135.63,291.32,135.63,291.38Z" style="fill:#fafafa"></path><path d="M116.87,300.19a17.63,17.63,0,0,1-.58-2.73,17,17,0,0,1-.37-2.76,16.63,16.63,0,0,1,.59,2.72A16.29,16.29,0,0,1,116.87,300.19Z" style="fill:#fafafa"></path><path d="M118.18,300a19.34,19.34,0,0,1-.24-2.66,22.31,22.31,0,0,1-.13-2.67,12.86,12.86,0,0,1,.35,2.65A12.52,12.52,0,0,1,118.18,300Z" style="fill:#fafafa"></path><path d="M120.55,300a13.56,13.56,0,0,1-.5-2.73,13.08,13.08,0,0,1-.14-2.77,25.51,25.51,0,0,1,.37,2.74A26,26,0,0,1,120.55,300Z" style="fill:#fafafa"></path><path d="M122.22,300.07a21.5,21.5,0,0,1-.18-5.55,76.9,76.9,0,0,1,.18,5.55Z" style="fill:#fafafa"></path><path d="M125.17,300a16.1,16.1,0,0,1-.2-2.63,15.93,15.93,0,0,1,0-2.64,31.62,31.62,0,0,1,.18,5.27Z" style="fill:#fafafa"></path><path d="M127.32,300.07a17.17,17.17,0,0,1-.09-2.72,17.57,17.57,0,0,1,.14-2.72,17.17,17.17,0,0,1,.09,2.72A14.93,14.93,0,0,1,127.32,300.07Z" style="fill:#fafafa"></path><path d="M129.34,299.78a19.24,19.24,0,0,1,.17-2.84,18.36,18.36,0,0,1,.38-2.82,17,17,0,0,1-.16,2.84A16.33,16.33,0,0,1,129.34,299.78Z" style="fill:#fafafa"></path><path d="M132,299.5a9.45,9.45,0,0,1,.32-2.42,10.2,10.2,0,0,1,.71-2.33,18,18,0,0,1-.49,2.38A20.78,20.78,0,0,1,132,299.5Z" style="fill:#fafafa"></path><path d="M109.18,275.47v4.06a1.6,1.6,0,0,0,1.6,1.59h27.73a1.59,1.59,0,0,0,1.59-1.59v-4.06Z" style="fill:#5E94FF"></path><g style="opacity:0.4"><polygon points="111.58 281.12 111.81 282.41 137.4 284.24 138.05 281.12 111.58 281.12"></polygon></g><path d="M119.24,275.46c-4.08-2.36-6.26-7.86-6.42-12.35s1.71-9.2,5.4-11.77a12.34,12.34,0,0,1,13.41-.11,14,14,0,0,1,6.15,12.11,16.08,16.08,0,0,1-6.58,12.08" style="fill:#455a64"></path><path d="M125.74,275.9a6.14,6.14,0,0,1-.07-1c0-.74,0-1.68-.08-2.81-.06-2.37-.16-5.64-.31-9.25s-.36-6.88-.51-9.24c-.06-1.13-.12-2.07-.16-2.8a5.78,5.78,0,0,1,0-1,4.47,4.47,0,0,1,.17,1c.08.66.18,1.62.28,2.8.22,2.36.46,5.63.62,9.25s.21,6.89.2,9.26c0,1.18,0,2.14,0,2.81A5.39,5.39,0,0,1,125.74,275.9Z" style="fill:#263238"></path><path d="M114,262.09a3,3,0,0,1-1.45.07c-.8-.07-1.43-.2-1.42-.31s.65-.14,1.45-.07S114,262,114,262.09Z" style="fill:#263238"></path><path d="M114.25,258.05c0,.1-.6-.06-1.25-.35s-1.14-.59-1.1-.69.6.06,1.25.35S114.29,258,114.25,258.05Z" style="fill:#263238"></path><path d="M116.33,255.06c-.06.08-.69-.21-1.34-.76s-1.07-1.1-1-1.17.59.35,1.23.88S116.38,255,116.33,255.06Z" style="fill:#263238"></path><path d="M118.42,252.23c-.1,0-.4-.43-.68-1s-.42-1.17-.32-1.21.39.43.67,1.05S118.51,252.19,118.42,252.23Z" style="fill:#263238"></path><path d="M121.69,250.22c-.09.05-.42-.45-.63-1.15s-.24-1.3-.14-1.31.29.53.5,1.2S121.79,250.18,121.69,250.22Z" style="fill:#263238"></path><path d="M127.16,248c.1,0,0,.47-.14,1s-.39.87-.49.83,0-.46.13-1S127.06,247.93,127.16,248Z" style="fill:#263238"></path><path d="M131.21,249.7c.08.08-.18.44-.58.8s-.77.6-.84.52.19-.44.58-.8S131.14,249.63,131.21,249.7Z" style="fill:#263238"></path><path d="M134.78,252c.06.09-.25.4-.7.71s-.87.48-.93.39.26-.4.71-.71S134.73,251.92,134.78,252Z" style="fill:#263238"></path><path d="M137.32,255.45c0,.09-.46.4-1.12.68s-1.22.43-1.26.33.45-.4,1.11-.68S137.28,255.35,137.32,255.45Z" style="fill:#263238"></path><path d="M138.32,259.2c0,.1-.5.25-1.14.33s-1.17.06-1.18,0,.49-.25,1.13-.33S138.3,259.09,138.32,259.2Z" style="fill:#263238"></path><path d="M138.84,263.81c0,.1-.59-.05-1.21-.32s-1.1-.57-1.06-.67.58.05,1.21.32S138.88,263.71,138.84,263.81Z" style="fill:#263238"></path><path d="M138.38,267.77c0,.1-.72-.07-1.43-.54s-1.15-1-1.07-1.09.6.33,1.27.77S138.42,267.67,138.38,267.77Z" style="fill:#263238"></path><path d="M136.32,271.38c-.06.08-.61-.24-1.13-.81s-.81-1.13-.72-1.19.49.39,1,.93S136.38,271.29,136.32,271.38Z" style="fill:#263238"></path><path d="M116.74,271.8c.05.09-.52.49-1.28.88s-1.41.64-1.46.54.53-.48,1.28-.88A3.38,3.38,0,0,1,116.74,271.8Z" style="fill:#263238"></path><path d="M115,268.54c0,.09-.41.4-1,.67s-1.14.43-1.19.33.42-.4,1-.67S114.91,268.44,115,268.54Z" style="fill:#263238"></path><path d="M113.64,265.65c0,.1-.55.27-1.27.37s-1.3.1-1.31,0,.55-.27,1.26-.38S113.62,265.55,113.64,265.65Z" style="fill:#263238"></path><path d="M118,264.06c0,.1-.52.35-1.26.44s-1.33-.05-1.32-.15.58-.15,1.28-.23S117.92,264,118,264.06Z" style="fill:#263238"></path><path d="M121.53,260.49c0,.1-.41.32-1,.38s-1.06-.07-1-.17.46-.15,1-.21S121.5,260.39,121.53,260.49Z" style="fill:#263238"></path><path d="M122.21,257.64c0,.1-.5,0-1.06-.17s-1-.42-.93-.52.51,0,1.06.16S122.25,257.54,122.21,257.64Z" style="fill:#263238"></path><path d="M123.53,254.75c-.08.07-.4-.14-.63-.55s-.26-.79-.16-.82.28.28.49.63S123.61,254.68,123.53,254.75Z" style="fill:#263238"></path><path d="M122,266.57c0,.11-.39.29-.92.42a3.37,3.37,0,0,1-.78.12l-.07-.22c.14,0,.23,0,.24,0s0,.11-.15.19l-.07-.22a3.42,3.42,0,0,1,.74-.26C121.47,266.49,121.92,266.47,122,266.57Z" style="fill:#263238"></path><path d="M122.68,271.64c0,.09-.48.39-1.17.66s-1.27.41-1.31.31.49-.4,1.17-.66S122.64,271.54,122.68,271.64Z" style="fill:#263238"></path><path d="M118.64,269.39c0,.1-.32.31-.78.46s-.88.21-.91.11.32-.31.78-.47S118.6,269.29,118.64,269.39Z" style="fill:#263238"></path><path d="M119,259.08c0,.1-.64,0-1.34-.21s-1.22-.58-1.17-.68.61.08,1.3.32S119,259,119,259.08Z" style="fill:#263238"></path><path d="M128.74,258c.06.09-.29.42-.77.74s-.92.5-1,.41.28-.42.76-.73S128.68,257.87,128.74,258Z" style="fill:#263238"></path><path d="M129.27,263.05c0,.1-.34.26-.8.36s-.87.09-.89,0,.34-.27.81-.37S129.25,262.94,129.27,263.05Z" style="fill:#263238"></path><path d="M129.89,268.76c0,.1-.56-.05-1.16-.32s-1-.58-1-.68.56.05,1.16.33S129.93,268.67,129.89,268.76Z" style="fill:#263238"></path><path d="M128.58,274.33c-.08.06-.42-.21-.75-.62s-.54-.79-.46-.86.42.21.75.62S128.66,274.26,128.58,274.33Z" style="fill:#263238"></path><path d="M128.31,254.22c.07.08-.16.36-.54.55s-.74.2-.76.1.25-.27.59-.44S128.25,254.13,128.31,254.22Z" style="fill:#263238"></path><path d="M133.11,259.35c0,.09-.41.34-1,.42s-1.1,0-1.09-.13.48-.17,1-.25S133.08,259.24,133.11,259.35Z" style="fill:#263238"></path><path d="M132.15,254.74c0,.1-.39.41-1,.61s-1.16.2-1.18.1.47-.27,1.07-.46S132.11,254.65,132.15,254.74Z" style="fill:#263238"></path><path d="M134.16,266.47a2.89,2.89,0,0,1-1.67,0c-.91-.17-1.59-.49-1.55-.59a16.66,16.66,0,0,1,3.22.58Z" style="fill:#263238"></path><path d="M132.38,273.16c-.07.08-.62-.24-1.18-.8s-.88-1.11-.79-1.18.53.37,1.06.91S132.44,273.08,132.38,273.16Z" style="fill:#263238"></path><path d="M124.53,249.3a18.12,18.12,0,0,0-3.34,2.65,16.26,16.26,0,0,0-4.17,9.21,20.9,20.9,0,0,0,.25,5.65,41.54,41.54,0,0,0,1.06,4.53c.36,1.28.7,2.3.93,3a9.34,9.34,0,0,1,.32,1.11,5.88,5.88,0,0,1-.46-1.06c-.27-.7-.65-1.71-1.05-3a37.94,37.94,0,0,1-1.15-4.55,20.36,20.36,0,0,1-.28-5.75,16,16,0,0,1,4.35-9.36,12.09,12.09,0,0,1,2.5-1.95c.32-.2.59-.31.76-.4A1.27,1.27,0,0,1,124.53,249.3Z" style="fill:#263238"></path><path d="M129.74,275.71a40.77,40.77,0,0,0,1.72-4.1,23.27,23.27,0,0,0,1-10.55,19.73,19.73,0,0,0-1.62-5.62,13.06,13.06,0,0,0-2.78-3.86,10,10,0,0,0-2.71-1.72c-.71-.29-1.13-.36-1.13-.4a1.27,1.27,0,0,1,.32,0,6,6,0,0,1,.86.23,9.5,9.5,0,0,1,2.84,1.65,13,13,0,0,1,2.91,3.92,19.32,19.32,0,0,1,1.69,5.72,22.37,22.37,0,0,1-1.15,10.68c-.21.66-.49,1.23-.7,1.74s-.45.92-.63,1.26A7.75,7.75,0,0,1,129.74,275.71Z" style="fill:#263238"></path><path d="M262.85,251.18l-13.08,16.08h0a14.19,14.19,0,0,0,4.38,7.8,8.05,8.05,0,0,0,8,1.53h0s.86-1.44,3.25-5.29C270,264,273,250.19,273,250.19Z" style="fill:#ffceb3"></path><path d="M283.42,220.11a1.46,1.46,0,0,0-1.36-.34l-8.55,2a2.9,2.9,0,0,0-1.79,1.27L254.9,249.8l1.4.55,9.49-1.28,17.91-28.69Z" style="fill:#263238"></path><path d="M277.46,224a.58.58,0,0,0,.72-.21c.2-.24.22-.54,0-.67a.6.6,0,0,0-.72.21C277.29,223.56,277.28,223.86,277.46,224Z" style="fill:#fff"></path><path d="M283.7,220.38a12.91,12.91,0,0,1-1.65.48L277.52,222l-3.13.75a2,2,0,0,0-1.3.85l-1,1.54L267.84,232c-3.06,4.86-5.86,9.24-7.9,12.41l-2.45,3.74a11.6,11.6,0,0,1-.95,1.34,10.38,10.38,0,0,1,.78-1.43l2.3-3.8c2-3.2,4.71-7.61,7.77-12.47,1.54-2.42,3-4.73,4.33-6.84l1-1.54a2.47,2.47,0,0,1,1.6-1l3.15-.7,4.56-1A12.81,12.81,0,0,1,283.7,220.38Z" style="fill:#455a64"></path><path d="M276.57,227.29s-.86-.06-1.23,2.16-1.58,8.58-1.58,8.58l-4.6-1.75-5.6,1.24s-1.17,1.17-.25,1.64a20.66,20.66,0,0,0,4.52.71l2.79,3.22-7.69-2.59s-2.49.85-1.68,2.19,6.1,5.26,6.1,5.26l-3.79.11L259,246s-1.37.2-.8,1.23,5.42,4.47,5.42,4.47l5.78,2s3.07-.53,3.33-1.4a9.65,9.65,0,0,0,.27-2.07s1.62-.57,1.89-1.33a4.27,4.27,0,0,0,0-1.91s2.59.16,2.85-1.19a13.89,13.89,0,0,0-.45-4.93c-.31-1,.59-10.59.47-10.87S278.16,226.5,276.57,227.29Z" style="fill:#ffceb3"></path><path d="M272.88,252.25a3.45,3.45,0,0,1-1.46.57,10.58,10.58,0,0,1-3.73.22,9.8,9.8,0,0,1-3.48-1.07c-.8-.44-1.2-.82-1.16-.88a20.19,20.19,0,0,0,4.75,1.42A22.07,22.07,0,0,0,272.88,252.25Z" style="fill:#ff9c65"></path><path d="M271.45,250.51a4.64,4.64,0,0,1-2.22-.95c-1.11-.71-1.86-1.45-1.76-1.56s1,.42,2.11,1.11S271.53,250.38,271.45,250.51Z" style="fill:#ff9a6c"></path><path d="M274.2,245.71c-.08.13-1.09-.24-2.14-1s-1.68-1.57-1.56-1.67.93.51,1.94,1.24S274.29,245.58,274.2,245.71Z" style="fill:#ff9a6c"></path><path d="M277.16,241.77c-.15.08-.77-.85-1.72-1.82s-1.85-1.66-1.76-1.79a4.09,4.09,0,0,1,2.21,1.42C276.89,240.61,277.3,241.71,277.16,241.77Z" style="fill:#ff9c65"></path><polygon points="362.94 464.11 358.86 464.11 360.9 313.51 369.62 313.51 362.94 464.11" style="fill:#e0e0e0"></polygon><path d="M362.94,464.11s0-.27,0-.79S363,462,363,461c.08-2,.19-5,.35-8.74.31-7.6.77-18.57,1.34-32.16,1.18-27.17,2.81-64.78,4.63-106.64l.26.27H360.9l.26-.25c-1,73.83-1.92,135.25-2.24,150.59l-.06-.06,3.06,0,1,0s-.32,0-1,0l-3.09,0h-.06v-.06c.1-15.34.84-76.77,1.84-150.6v-.26h9.25v.28c-1.9,41.92-3.61,79.6-4.85,106.81-.63,13.56-1.14,24.51-1.5,32.09-.18,3.76-.32,6.69-.42,8.68q-.08,1.47-.12,2.25C363,463.86,362.94,464.11,362.94,464.11Z" style="fill:#263238"></path><polygon points="110.48 464.43 106.4 464.43 104.08 313.08 112.8 313.08 110.48 464.43" style="fill:#e0e0e0"></polygon><path d="M110.48,464.43s0-.28,0-.79,0-1.3,0-2.3c0-2,.05-5,.09-8.78.1-7.63.24-18.66.42-32.32.39-27.3.93-65.1,1.54-107.16l.26.26h-8.72l.26-.26c1.13,74.2,2,136,2.12,151.35l-.06-.06,3,0,1,0-1,0-3.09,0h-.06v-.06C106,449,105,387.29,103.82,313.08v-.26h9.25v.26c-.69,42.15-1.31,80-1.76,107.36-.24,13.63-.43,24.63-.57,32.25-.07,3.78-.13,6.72-.17,8.73l0,2.25Z" style="fill:#263238"></path><rect x="84.08" y="301.5" width="292.94" height="12.55" style="fill:#455a64"></rect><path d="M84.08,301.5l1.48,0,4.38,0,16.92,0,62.46-.08,207.7-.11h.26v13.07H377l-292.94-.19H84v-.07c0-4.31,0-7.45,0-9.53l0-2.28c0-.5,0-.74,0-.74s0,.26,0,.76l0,2.3c0,2.07,0,5.19,0,9.49l-.07-.07L377,313.79l-.26.26V301.5l.26.26-207.51-.11L107,301.58l-17,0-4.41,0Z" style="fill:#263238"></path><path d="M144.86,301.69s0,.05-.09.13-.16.22-.3.38a6,6,0,0,1-1.44,1.15,8,8,0,0,1-2.77.93,19,19,0,0,1-3.87.17,35.65,35.65,0,0,1-4.65-.53,40.71,40.71,0,0,0-5.3-.63,32.79,32.79,0,0,0-11.93,2.31c-4.1,1.46-7.92,3.13-11.58,4.14a32.84,32.84,0,0,1-5.28,1.05,22.89,22.89,0,0,1-4.69,0,15.87,15.87,0,0,1-6.44-2.06,10.15,10.15,0,0,1-2-1.49l.14.09.38.29a15.28,15.28,0,0,0,1.54,1A16.39,16.39,0,0,0,93,310.53a22.56,22.56,0,0,0,4.64,0,33.42,33.42,0,0,0,5.22-1.07c3.63-1,7.43-2.69,11.55-4.16A32.92,32.92,0,0,1,126.45,303a41.89,41.89,0,0,1,5.33.67,38.19,38.19,0,0,0,4.62.57,19.67,19.67,0,0,0,3.83-.11,7.91,7.91,0,0,0,2.73-.86A7.27,7.27,0,0,0,144.86,301.69Z" style="fill:#263238"></path><path d="M113.47,301.88a6.41,6.41,0,0,1-.86.74A19.62,19.62,0,0,1,110,304.3a22,22,0,0,1-9.88,2.62,21.51,21.51,0,0,1-10-2.06,6.31,6.31,0,0,1-2.41-2,3.52,3.52,0,0,1-.4-.75,1,1,0,0,1-.07-.29,8.71,8.71,0,0,0,.58,1,6.54,6.54,0,0,0,2.41,1.83,22.14,22.14,0,0,0,9.88,1.94,23.93,23.93,0,0,0,5.52-.84,23.6,23.6,0,0,0,4.25-1.65,25.08,25.08,0,0,0,2.66-1.57A6.43,6.43,0,0,1,113.47,301.88Z" style="fill:#263238"></path><path d="M180.8,309.83l.45.16a7.89,7.89,0,0,0,1.32.35,7.81,7.81,0,0,0,5-.78v.16a11.88,11.88,0,0,0-6.23-2.43,12.15,12.15,0,0,0-8.1,2.1,1.27,1.27,0,0,0-.62.82.86.86,0,0,0,.53.81,4,4,0,0,0,1.11.39l1.23.28c1.64.36,3.33.72,5.09,1A30.23,30.23,0,0,0,186,313a18.82,18.82,0,0,0,2.78-.27c.46-.08.92-.17,1.38-.29a6.76,6.76,0,0,0,1.34-.43,4.35,4.35,0,0,0,1.74-1.26,2,2,0,0,0,.33-1.92,3.3,3.3,0,0,0-1.36-1.53,11.94,11.94,0,0,0-1.9-.93,26.08,26.08,0,0,0-8-1.65,33,33,0,0,0-13.61,2.11,33.67,33.67,0,0,0-8.19,4.47c-.87.68-1.55,1.21-2,1.61-.21.17-.37.32-.5.43l-.18.13a1,1,0,0,1,.15-.16l.49-.46c.41-.41,1.07-1,1.94-1.66a33.14,33.14,0,0,1,21.89-6.8,26.47,26.47,0,0,1,8.08,1.66,11.19,11.19,0,0,1,2,1,3.64,3.64,0,0,1,1.5,1.69,2.33,2.33,0,0,1-.38,2.27,4.7,4.7,0,0,1-1.88,1.36,7.81,7.81,0,0,1-1.39.46c-.47.12-.94.21-1.41.29a19.49,19.49,0,0,1-2.83.27,30.83,30.83,0,0,1-5.48-.38c-1.77-.26-3.47-.63-5.12-1l-1.22-.29a3.84,3.84,0,0,1-1.2-.43,1.5,1.5,0,0,1-.5-.44,1,1,0,0,1-.19-.67,1.62,1.62,0,0,1,.76-1,12.44,12.44,0,0,1,8.31-2.11,12.07,12.07,0,0,1,6.32,2.54l.11.09-.13.07a7.77,7.77,0,0,1-5.13.71A5.65,5.65,0,0,1,180.8,309.83Z" style="fill:#263238"></path><path d="M217.72,302a1.9,1.9,0,0,1,.29.63,5,5,0,0,1,.19,1.89,9.3,9.3,0,0,1-2.8,5.47,13.88,13.88,0,0,1-2.61,2.22,11.28,11.28,0,0,1-2.52,1.22,10.9,10.9,0,0,1-1.82.46,3,3,0,0,1-.69.06c0-.07,1-.2,2.43-.75a12.86,12.86,0,0,0,2.42-1.26,14.78,14.78,0,0,0,2.53-2.19A9.47,9.47,0,0,0,218,304.5,6.68,6.68,0,0,0,217.72,302Z" style="fill:#263238"></path><path d="M269.25,313.39a16.51,16.51,0,0,0-1.32-1.28,9.36,9.36,0,0,0-4.49-2,9.89,9.89,0,0,0-3.41.1,14.33,14.33,0,0,1-4,.37,7.94,7.94,0,0,1-4-1.95,13.48,13.48,0,0,0-4-2.38,14.73,14.73,0,0,0-8.9-.14,21.22,21.22,0,0,0-6.58,3.34,36.88,36.88,0,0,0-3.82,3.25l-1,1a2,2,0,0,1-.35.32,1.79,1.79,0,0,1,.3-.37c.2-.24.52-.58.93-1a31.25,31.25,0,0,1,3.76-3.36,20.9,20.9,0,0,1,6.64-3.45,14.87,14.87,0,0,1,9.11.12,13.87,13.87,0,0,1,4.1,2.43,7.79,7.79,0,0,0,3.81,1.91,14.77,14.77,0,0,0,3.92-.34,10.09,10.09,0,0,1,3.5-.05A9.28,9.28,0,0,1,268,312,6.16,6.16,0,0,1,269.25,313.39Z" style="fill:#263238"></path><path d="M315.25,301.62a2.74,2.74,0,0,1-.31.43c-.23.27-.52.69-1,1.17a27.32,27.32,0,0,1-4.19,3.72,34,34,0,0,1-7.27,4,29.46,29.46,0,0,1-4.68,1.49,24.26,24.26,0,0,1-5.25.68,25.91,25.91,0,0,1-9.94-2.07,33.54,33.54,0,0,1-7.23-4.1,27.72,27.72,0,0,1-4.16-3.76c-.46-.47-.76-.9-1-1.16a2.51,2.51,0,0,1-.32-.43,3,3,0,0,1,.37.38c.24.25.55.66,1,1.12a31.22,31.22,0,0,0,4.2,3.65,34.35,34.35,0,0,0,7.21,4,26,26,0,0,0,9.82,2,24.22,24.22,0,0,0,5.17-.66,28.94,28.94,0,0,0,4.64-1.46,34.19,34.19,0,0,0,7.24-3.93,28.49,28.49,0,0,0,4.24-3.61c.47-.45.78-.86,1-1.12A4.3,4.3,0,0,1,315.25,301.62Z" style="fill:#263238"></path><path d="M308.68,301.5s-.08.08-.25.2-.41.3-.74.5a30.34,30.34,0,0,1-2.87,1.63,31,31,0,0,1-4.54,1.85,19.88,19.88,0,0,1-5.93,1A25.22,25.22,0,0,1,281,302.36c-.32-.22-.56-.41-.72-.53l-.24-.21a11.48,11.48,0,0,1,1,.62,28.31,28.31,0,0,0,2.88,1.57,25.39,25.39,0,0,0,10.41,2.53,20.44,20.44,0,0,0,5.83-1,33,33,0,0,0,4.53-1.77c1.25-.59,2.24-1.13,2.91-1.51A9,9,0,0,1,308.68,301.5Z" style="fill:#263238"></path><path d="M358.86,302.79h-.57l-1.62-.06-1.17-.05h-1.39c-1,0-2.13,0-3.39,0l-2,.07-2.12.14c-1.48.07-3,.27-4.65.43-3.25.41-6.76,1-10.34,1.79s-6.81,1.79-9.68,2.77c-1.39.52-2.76,1-3.93,1.5l-1.74.72-1.53.72c-1,.45-1.82.9-2.56,1.29l-1,.55-.82.48-1.14.67a2.16,2.16,0,0,1-.43.22s.1-.1.34-.27l1.06-.71.78-.51,1-.57c.72-.41,1.53-.88,2.51-1.34l1.52-.74,1.73-.75c1.18-.53,2.54-1,3.94-1.54a93.64,93.64,0,0,1,9.75-2.82c3.61-.81,7.17-1.38,10.44-1.78,1.66-.15,3.22-.34,4.71-.4l2.14-.13,2,0c1.26,0,2.41,0,3.41,0l1.4,0,1.17.08,1.61.13A2.26,2.26,0,0,1,358.86,302.79Z" style="fill:#263238"></path><path d="M274.4,313.14a13.47,13.47,0,0,0-1.58-1.88A14.55,14.55,0,0,0,267,308a31.84,31.84,0,0,0-4.51-1c-1.64-.26-3.42-.46-5.27-.78a44.49,44.49,0,0,1-5.73-1.44,37.46,37.46,0,0,0-6.12-1.48,25.5,25.5,0,0,0-11.9,1.65,44.67,44.67,0,0,0-4.85,2.17c-1.48.76-2.84,1.51-4.08,2.21-2.46,1.4-4.43,2.59-5.79,3.42l-1.55,1-.41.25-.15.07.13-.11.39-.27c.34-.24.85-.58,1.52-1,1.33-.86,3.28-2.09,5.74-3.52,1.23-.71,2.59-1.47,4.07-2.25a43.15,43.15,0,0,1,4.86-2.22A25.62,25.62,0,0,1,245.46,303a37.33,37.33,0,0,1,6.17,1.5,47,47,0,0,0,5.68,1.45c1.84.32,3.62.54,5.27.81a32.71,32.71,0,0,1,4.54,1.05,14.42,14.42,0,0,1,5.8,3.37A7.26,7.26,0,0,1,274.4,313.14Z" style="fill:#263238"></path><path d="M209.78,301.69a3.44,3.44,0,0,1-.05.8,9.32,9.32,0,0,1-.56,2.12,12.14,12.14,0,0,1-4.41,5.64,29.43,29.43,0,0,1-6.53,3c-.88.29-1.59.5-2.09.63a3.47,3.47,0,0,1-.78.16,3,3,0,0,1,.74-.3l2-.73a33.91,33.91,0,0,0,6.43-3.07,12.46,12.46,0,0,0,4.37-5.44A18.82,18.82,0,0,0,209.78,301.69Z" style="fill:#263238"></path><path d="M143.17,314.05a4.22,4.22,0,0,1,.7-.67c.46-.42,1.15-1,2-1.67a57.73,57.73,0,0,1,7.32-4.72c3-1.64,5.76-2.95,7.78-3.88,1-.46,1.84-.83,2.41-1.07a4.92,4.92,0,0,1,.9-.35,5.12,5.12,0,0,1-.84.47l-2.36,1.18c-2,1-4.75,2.33-7.72,4a69.57,69.57,0,0,0-7.34,4.61c-.9.65-1.62,1.19-2.11,1.57A6,6,0,0,1,143.17,314.05Z" style="fill:#263238"></path><path d="M156.68,302.2s-.66-.08-1.85,0a12.94,12.94,0,0,0-4.78,1.45,44.39,44.39,0,0,0-6.22,4.17,30.64,30.64,0,0,1-3.75,2.43,20.51,20.51,0,0,1-4.47,1.72,41.28,41.28,0,0,1-9.17,1.11c-2.84.08-5.39,0-7.52.11a37.56,37.56,0,0,0-5,.49l-1.35.27a2.83,2.83,0,0,1-.47.09,2,2,0,0,1,.45-.16c.3-.09.76-.2,1.34-.33a33.17,33.17,0,0,1,5-.61c2.14-.12,4.69-.09,7.52-.19a42.8,42.8,0,0,0,9.09-1.12,20.9,20.9,0,0,0,4.4-1.69,31.15,31.15,0,0,0,3.72-2.38,41.27,41.27,0,0,1,6.3-4.13,12.5,12.5,0,0,1,4.88-1.37,10.72,10.72,0,0,1,1.39,0A2.73,2.73,0,0,1,156.68,302.2Z" style="fill:#263238"></path></g></svg>
